<svg width="371" height="254" viewBox="0 0 371 254" fill="none" xmlns="http://www.w3.org/2000/svg">
<path d="M25.8132 0.540469C24.6688 1.11268 23.7151 2.2889 23.429 3.5287C23.2065 4.45061 21.9349 2.54322 44.6646 35.4774C51.8172 45.8408 55.2823 51.1179 55.4413 51.8809C55.5684 52.6438 56.0453 53.375 56.7764 54.0108L57.8891 54.9963H120.261C155.674 54.9963 183.172 55.1234 183.84 55.2824C186.224 55.8546 187.782 58.1435 187.4 60.5277C187.21 61.7675 182.155 66.8539 94.7334 154.339C43.9016 205.203 2.12988 247.165 1.93915 247.547C1.08082 249.263 1.93915 252.061 3.624 253.078C4.57769 253.65 8.5514 253.682 161.238 253.682H317.866L318.978 252.728C320.313 251.552 320.886 249.931 320.599 248.341C320.409 247.292 314.496 241.252 268.687 195.412C240.235 166.96 216.87 143.721 216.742 143.753C216.615 143.817 207.778 152.559 197.096 163.24L177.705 182.6L182.441 187.401C187.846 192.837 188.132 193.345 186.955 195.952C186.447 197.128 186.034 197.573 184.953 198.05C183.649 198.654 182.696 198.686 161.333 198.686C147.123 198.686 138.667 198.559 137.904 198.368C135.742 197.764 134.439 195.316 134.947 192.9C135.138 192.042 151.891 175.13 227.583 99.4383C291.575 35.4138 320.091 6.67589 320.409 5.91293C321.235 3.81481 320.154 1.33521 318.025 0.4451C317.134 0.0636234 294.468 4.39286e-05 171.919 4.39286e-05C38.9424 4.39286e-05 26.7669 0.0636234 25.8132 0.540469Z" fill="#1E293B"/>
<path d="M286.171 96.005C282.515 96.768 279.495 98.9615 277.938 101.95C276.094 105.51 276.094 105.415 276.094 124.616C276.094 140.733 276.157 142.45 276.666 144.294C278.256 149.92 280.989 152.686 285.79 153.544C288.015 153.958 289.827 153.799 292.307 153.004C293.483 152.623 294.405 151.987 295.74 150.62L297.584 148.744L298.061 149.952C298.347 150.62 298.76 151.637 299.014 152.177C299.428 153.227 299.428 153.227 301.653 153.227H303.91V136.696V120.165H296.916H289.922V124.934C289.922 128.526 290.018 129.702 290.336 129.734C290.526 129.766 291.258 129.734 291.925 129.702L293.165 129.639L293.038 135.361C292.942 140.606 292.879 141.178 292.275 142.005C291.353 143.245 290.113 143.626 289.032 143.022C287.22 142.005 287.22 142.132 287.22 124.552C287.22 108.689 287.22 108.435 287.888 107.545C288.683 106.464 289.859 106.019 290.971 106.305C292.466 106.655 292.815 107.704 293.006 111.9L293.197 115.715L298.633 115.651L304.069 115.556L303.973 112.695C303.624 103.221 300.985 98.1349 295.549 96.4819C293.578 95.8778 288.11 95.5917 286.171 96.005Z" fill="#1E293B"/>
<path d="M244.622 96.7044C244.717 96.9269 246.784 105.542 249.231 115.842L253.682 134.566V143.912V153.227H259.086H264.491V143.658V134.121L268.941 115.365C271.389 105.065 273.392 96.5455 273.392 96.4819C273.392 96.3865 270.88 96.3229 267.828 96.3229C262.329 96.3229 262.265 96.3229 262.106 97.0223C262.011 97.4356 261.312 101.6 260.549 106.305C259.754 110.978 259.055 114.888 258.991 114.952C258.927 115.015 258.355 111.677 257.688 107.513C257.02 103.38 256.352 99.1522 256.162 98.1349L255.844 96.3229H250.153C245.766 96.3229 244.527 96.4183 244.622 96.7044Z" fill="#1E293B"/>
<path d="M316.88 105.002C315.736 105.447 314.369 106.082 313.86 106.432C312.429 107.449 310.395 109.77 309.664 111.232C308.138 114.157 308.042 115.365 308.042 128.939C308.042 136.124 308.17 142.45 308.36 143.404C309.155 147.568 312.048 151.256 315.577 152.591C321.331 154.753 329.055 153.767 332.87 150.429C334.428 149.062 335.859 146.233 336.463 143.308C337.162 139.907 337.194 118.258 336.494 114.984C335.572 110.533 333.061 107.354 329.024 105.415C327.116 104.493 326.671 104.429 322.984 104.334C319.455 104.27 318.787 104.334 316.88 105.002ZM324.382 114.221C325.018 115.111 325.05 115.492 325.145 127.89C325.209 134.916 325.145 141.274 325.05 142.037C324.923 142.8 324.573 143.69 324.223 144.039C323.333 144.929 321.553 144.834 320.599 143.849L319.805 143.086V129.225C319.805 112.981 319.773 113.108 322.634 113.267C323.397 113.299 323.906 113.585 324.382 114.221Z" fill="#1E293B"/>
<path d="M202.195 127.636C201.878 127.986 201.719 128.272 201.846 128.272C201.973 128.272 201.878 128.462 201.655 128.717C201.433 128.971 201.178 129.13 201.083 129.13C200.987 129.098 200.352 129.543 199.652 130.147C198.953 130.719 198.571 131.101 198.762 131.006C199.048 130.847 199.112 130.942 198.985 131.26C198.889 131.546 198.699 131.705 198.54 131.61C198.412 131.546 197.967 131.864 197.554 132.341C196.855 133.135 196.855 133.135 197.522 132.595C197.904 132.245 198.222 132.118 198.222 132.245C198.222 132.404 198.381 132.373 198.603 132.15C198.826 131.927 199.08 131.769 199.207 131.769C199.525 131.769 199.239 133.612 198.667 135.043C198.19 136.314 198.349 136.601 199.652 136.442C200.606 136.346 200.511 137.618 199.557 137.745C199.017 137.84 198.762 137.681 198.635 137.205C198.476 136.632 198.285 136.569 197.268 136.728C196.569 136.855 195.996 136.791 195.869 136.601C195.742 136.41 195.456 136.314 195.202 136.41C194.947 136.537 194.788 136.728 194.884 136.855C194.979 136.982 194.82 137.268 194.566 137.491C194.312 137.713 194.089 138.126 194.089 138.444C194.089 138.762 193.867 139.525 193.612 140.161C193.072 141.401 193.263 141.687 194.566 141.528C195.52 141.433 195.424 142.704 194.471 142.831C193.93 142.927 193.676 142.768 193.549 142.291C193.39 141.719 193.199 141.655 192.182 141.814C191.482 141.941 190.91 141.878 190.783 141.687C190.656 141.496 190.37 141.401 190.115 141.496C189.861 141.623 189.702 141.814 189.797 141.941C189.893 142.068 189.734 142.354 189.48 142.577C189.225 142.8 189.003 143.213 189.003 143.531C189.003 143.849 188.78 144.612 188.526 145.247C187.985 146.487 188.176 146.773 189.48 146.614C190.433 146.519 190.338 147.791 189.384 147.918C188.844 148.013 188.589 147.854 188.462 147.377C188.303 146.805 188.113 146.741 187.095 146.9C186.396 147.028 185.824 146.964 185.697 146.773C185.569 146.583 185.283 146.487 185.029 146.583C184.775 146.71 184.616 146.9 184.711 147.028C184.806 147.155 184.648 147.441 184.393 147.663C184.139 147.886 183.916 148.299 183.916 148.617C183.916 148.935 183.694 149.698 183.44 150.334C182.899 151.574 183.09 151.86 184.393 151.701C185.347 151.605 185.252 152.877 184.298 153.004C183.757 153.099 183.503 152.94 183.376 152.464C183.217 151.891 183.026 151.828 182.009 151.987C181.31 152.114 180.737 152.05 180.61 151.86C180.483 151.669 180.197 151.574 179.943 151.669C179.688 151.796 179.529 151.987 179.625 152.114C179.72 152.241 179.561 152.527 179.307 152.75C179.053 152.972 178.83 153.386 178.83 153.703C178.83 154.021 178.607 154.784 178.353 155.42C177.813 156.66 178.003 156.946 179.307 156.787C180.261 156.692 180.165 157.963 179.212 158.09C178.671 158.186 178.417 158.027 178.29 157.55C178.131 156.978 177.94 156.914 176.923 157.073C176.223 157.2 175.651 157.137 175.524 156.946C175.397 156.755 175.111 156.66 174.856 156.755C174.602 156.882 174.443 157.073 174.538 157.2C174.634 157.327 174.475 157.614 174.221 157.836C173.966 158.059 173.744 158.472 173.744 158.79C173.744 159.108 173.521 159.871 173.267 160.506C172.726 161.746 172.917 162.032 174.221 161.873C175.174 161.778 175.079 163.05 174.125 163.177C173.585 163.272 173.33 163.113 173.203 162.636C173.044 162.064 172.854 162.001 171.836 162.16C171.137 162.287 170.565 162.223 170.438 162.032C170.31 161.842 170.024 161.746 169.77 161.842C169.516 161.969 169.357 162.16 169.452 162.287C169.547 162.446 169.325 162.764 168.943 163.05C168.562 163.304 168.371 163.654 168.498 163.876C168.626 164.067 168.626 164.798 168.498 165.466C168.339 166.419 168.149 166.737 167.704 166.737C166.814 166.737 165.447 167.437 165.574 167.818C165.637 168.009 166.305 168.136 167.1 168.104C168.403 168.041 168.467 168.072 167.894 168.486C167.29 168.963 167.29 168.963 167.958 168.963C168.371 168.963 168.657 169.153 168.657 169.439C168.657 169.853 168.753 169.853 169.293 169.535C170.12 168.994 170.12 168.009 169.325 168.009C168.467 168.009 168.244 167.532 168.816 167.055C169.23 166.705 169.42 166.769 169.929 167.309C170.279 167.691 170.755 167.913 170.978 167.85C171.169 167.754 171.55 167.818 171.804 167.977C172.472 168.39 171.677 169.28 170.692 169.28C170.088 169.28 169.929 169.439 169.929 170.043C169.929 170.488 169.77 170.933 169.547 171.061C169.357 171.188 169.293 171.156 169.388 170.965C169.484 170.806 169.388 170.647 169.166 170.647C168.816 170.647 168.784 170.775 169.071 171.22C169.261 171.506 169.611 171.696 169.834 171.601C170.374 171.379 171.2 172.078 171.2 172.714C171.2 173.095 171.073 173.095 170.501 172.587C169.834 172.046 169.834 172.078 170.533 172.873C170.978 173.349 171.518 173.731 171.741 173.731C171.995 173.731 172.091 173.858 171.995 174.049C171.9 174.208 171.995 174.367 172.281 174.367C172.536 174.367 172.949 174.462 173.235 174.558C173.521 174.653 173.744 174.589 173.744 174.399C173.744 174.208 173.553 174.049 173.299 174.049C173.076 174.049 172.472 173.858 172.027 173.604C171.328 173.254 171.264 173.127 171.677 172.968C171.963 172.873 172.472 172.777 172.822 172.777C173.235 172.777 173.426 172.555 173.426 172.014C173.426 171.251 174.221 170.298 174.602 170.647C174.697 170.743 174.825 171.283 174.888 171.824C174.983 172.587 174.888 172.777 174.411 172.777C173.617 172.777 173.362 173.127 173.775 173.636C174.316 174.271 175.015 174.144 175.015 173.413C175.015 172.873 175.142 172.809 175.905 172.968C176.986 173.254 176.986 173.222 176.732 173.858C176.637 174.144 176.191 174.462 175.81 174.558C175.397 174.653 175.015 175.034 174.92 175.384C174.793 175.829 174.856 175.956 175.174 175.829C175.429 175.734 175.842 175.861 176.096 176.115C176.35 176.37 176.7 176.592 176.859 176.592C177.018 176.592 177.145 176.846 177.113 177.132C177.113 177.45 177.336 177.736 177.654 177.8C177.972 177.864 178.194 177.705 178.194 177.419C178.194 177.164 178.417 176.719 178.703 176.433C179.148 176.02 179.307 175.988 179.498 176.338C179.943 177.005 179.816 177.864 179.307 177.864C178.766 177.864 178.671 178.69 179.148 178.976C179.72 179.326 180.42 178.468 180.42 177.45C180.42 176.751 180.801 176.147 181.85 175.098C183.058 173.89 183.408 173.667 184.234 173.795C185.029 173.922 185.188 173.858 185.029 173.445C184.87 173.032 184.902 173.032 185.22 173.318C185.506 173.604 185.506 173.795 185.22 174.144C185.029 174.399 184.965 174.875 185.061 175.193C185.188 175.543 185.188 175.702 185.029 175.575C184.902 175.448 184.584 175.575 184.361 175.893C184.044 176.338 183.885 176.37 183.535 176.02C183.185 175.67 183.217 175.638 183.726 175.829C184.139 175.988 184.266 175.956 184.107 175.702C183.98 175.479 183.694 175.32 183.471 175.32C182.931 175.32 181.945 176.433 182.041 176.974C182.168 177.895 181.977 178.531 181.659 178.34C181.31 178.086 179.784 179.358 179.784 179.866C179.784 180.057 180.133 179.803 180.578 179.326C181.691 178.118 181.882 178.309 180.833 179.612C180.356 180.216 179.784 180.661 179.561 180.598C179.37 180.502 179.116 180.629 179.053 180.852C178.957 181.074 179.084 181.265 179.339 181.265C180.006 181.265 183.662 177.514 183.471 177.037C183.376 176.783 183.471 176.687 183.726 176.783C183.948 176.878 184.457 176.592 184.902 176.179C187.54 173.54 188.717 172.141 188.558 171.855C188.431 171.665 188.526 171.569 188.78 171.696C189.035 171.792 189.829 171.188 190.719 170.234C191.546 169.376 192.309 168.645 192.436 168.645C192.849 168.613 193.803 167.055 193.612 166.737C193.517 166.578 193.612 166.515 193.835 166.578C194.089 166.674 194.979 166.038 195.901 165.084C196.791 164.162 197.967 162.986 198.508 162.509C199.048 162.001 199.493 161.428 199.493 161.238C199.493 160.951 199.43 160.951 199.239 161.238C199.08 161.524 198.858 161.428 198.571 160.92C198.158 160.284 198.158 160.252 198.635 160.665C199.048 160.983 199.175 160.983 199.175 160.697C199.175 160.411 199.303 160.379 199.589 160.634C199.907 160.888 200.415 160.538 201.719 159.203C202.672 158.186 203.276 157.518 203.022 157.677C202.704 157.836 202.641 157.804 202.799 157.55C202.927 157.359 203.181 157.264 203.34 157.391C203.69 157.582 204.548 156.66 204.58 156.088C204.58 155.897 204.453 155.929 204.325 156.151C204.166 156.437 203.944 156.342 203.658 155.833C203.245 155.198 203.245 155.166 203.721 155.579C204.135 155.897 204.262 155.897 204.262 155.611C204.262 155.325 204.389 155.325 204.675 155.547C205.057 155.897 205.851 155.42 206.741 154.307C207.155 153.767 206.964 152.75 206.424 152.75C206.233 152.75 206.265 152.972 206.487 153.227C206.71 153.513 206.837 153.799 206.741 153.862C206.265 154.339 205.947 153.068 206.169 151.51C206.455 149.348 207.218 148.617 209.221 148.617C210.206 148.617 210.683 148.458 210.81 148.14C210.969 147.759 211.128 147.727 211.446 148.013C211.701 148.204 211.891 148.522 211.891 148.681C211.891 148.903 211.732 148.871 211.478 148.649C211.128 148.395 210.938 148.49 210.62 149.062C210.27 149.73 209.348 150.238 208.236 150.334C208.077 150.366 207.949 150.715 207.981 151.097C208.045 151.478 207.949 151.796 207.79 151.796C207.441 151.796 207.123 153.036 207.409 153.227C207.568 153.29 208.108 152.909 208.681 152.368C209.412 151.637 209.634 151.224 209.475 150.715C209.285 150.175 209.348 150.111 209.698 150.429C210.048 150.715 210.302 150.652 210.779 150.238C212.146 149.126 212.241 148.776 211.732 147.568C211.065 145.947 211.128 145.216 212.082 144.262C212.718 143.626 213.099 143.499 213.958 143.626C214.625 143.721 215.261 143.626 215.674 143.34C216.437 142.8 216.596 142.1 215.897 142.354C215.579 142.482 215.484 142.386 215.579 142.1C215.706 141.782 215.579 141.719 215.07 141.846C214.689 141.941 214.18 141.814 213.831 141.496C213.258 140.956 212.813 141.083 212.972 141.719C213.036 141.941 213.004 142.005 212.94 141.846C212.845 141.719 212.432 141.623 212.019 141.623C211.383 141.623 211.256 141.464 211.256 140.733C211.256 139.938 211.383 139.811 212.177 139.811C212.877 139.811 213.068 139.938 212.94 140.32C212.813 140.733 212.845 140.733 213.099 140.384C213.513 139.811 213.227 139.08 212.686 139.271C212.114 139.493 210.874 138.826 211.097 138.413C211.224 138.254 211.51 138.317 211.796 138.603C212.05 138.889 212.336 139.048 212.432 138.953C212.623 138.794 211.796 137.491 211.51 137.491C211.383 137.491 210.874 137.046 210.397 136.537C209.539 135.551 209.03 135.329 209.03 135.933C209.03 136.124 209.316 136.346 209.666 136.442C210.016 136.537 210.206 136.728 210.111 136.887C210.016 137.046 210.048 137.173 210.206 137.173C210.334 137.173 210.493 137.554 210.524 138.031C210.556 138.762 210.493 138.826 210.206 138.413C209.984 138.158 209.539 137.745 209.189 137.522C208.649 137.173 208.649 137.141 209.126 137.3C209.507 137.427 209.666 137.364 209.571 137.109C209.507 136.887 209.157 136.696 208.776 136.728C208.172 136.728 208.172 136.696 208.649 135.997C209.126 135.234 209.062 135.17 206.582 132.627C205.152 131.196 203.785 129.543 203.499 128.971C202.958 127.89 202.545 127.572 202.895 128.494C203.086 129.003 203.054 129.003 202.545 128.621C202.005 128.176 202.037 128.113 202.736 127.572C203.149 127.286 203.308 127 203.117 127C202.927 127 202.513 127.286 202.195 127.636ZM202.895 129.225C203.213 129.225 203.276 129.416 203.149 129.829C203.054 130.179 203.117 130.529 203.308 130.656C203.499 130.751 203.562 131.006 203.435 131.165C203.34 131.323 203.403 131.673 203.594 131.896C203.88 132.214 203.817 132.373 203.403 132.531C203.054 132.69 202.641 132.468 202.195 131.896C201.433 130.942 200.765 131.069 200.765 132.15C200.765 132.659 200.67 132.722 200.352 132.436C200.097 132.245 199.843 132.15 199.748 132.245C199.652 132.341 199.589 131.959 199.621 131.387C199.652 130.592 199.811 130.338 200.256 130.338C200.606 130.338 200.924 130.147 201.019 129.893C201.115 129.607 201.019 129.543 200.733 129.702C200.479 129.861 200.415 129.829 200.542 129.702C200.67 129.543 201.019 129.384 201.337 129.353C201.623 129.289 201.941 129.066 202.005 128.844C202.1 128.526 202.164 128.526 202.291 128.812C202.354 129.035 202.609 129.225 202.895 129.225ZM205.057 131.451C205.152 131.61 204.961 131.769 204.611 131.769C204.262 131.769 203.88 131.61 203.785 131.451C203.69 131.26 203.88 131.133 204.23 131.133C204.58 131.133 204.961 131.26 205.057 131.451ZM205.756 132.341C206.01 132.5 206.01 132.722 205.692 133.135C205.406 133.549 205.216 133.612 205.057 133.326C204.929 133.135 204.993 132.849 205.216 132.722C205.533 132.531 205.47 132.436 205.025 132.309C204.643 132.214 204.611 132.15 204.898 132.118C205.152 132.118 205.533 132.214 205.756 132.341ZM207.441 134.248C207.536 134.343 207.282 134.28 206.869 134.153C206.424 134.026 205.915 134.121 205.597 134.375C205.184 134.661 205.216 134.598 205.661 134.057C206.265 133.358 206.36 133.358 207.441 134.248ZM207.981 134.757C207.854 135.106 207.949 135.17 208.299 135.043C208.712 134.884 208.712 134.979 208.236 135.679C207.886 136.219 207.409 136.537 206.932 136.537C206.296 136.537 206.169 136.378 206.169 135.551C206.169 134.757 206.265 134.63 206.773 134.789C207.123 134.884 207.473 134.82 207.6 134.63C207.886 134.153 208.172 134.248 207.981 134.757ZM205.851 137.364C205.851 137.904 205.152 137.809 204.961 137.236C204.898 137.014 205.057 136.855 205.343 136.855C205.629 136.855 205.851 137.077 205.851 137.364ZM211.097 142.736C211.097 143.626 210.175 143.531 210.048 142.641C209.952 142.037 210.048 141.909 210.524 142.005C210.842 142.068 211.097 142.386 211.097 142.736ZM211.573 149.03C211.573 149.094 211.192 149.475 210.747 149.92L209.889 150.683L210.461 149.793C210.906 149.094 211.573 148.649 211.573 149.03ZM208.236 152.4L207.377 153.227L208.14 152.082C208.553 151.446 208.935 151.065 208.998 151.224C209.062 151.415 208.712 151.923 208.236 152.4ZM200.765 152.909C200.765 153.163 200.542 153.386 200.288 153.386C199.779 153.386 199.652 153.004 200.034 152.654C200.383 152.273 200.765 152.4 200.765 152.909ZM206.106 153.894C206.36 154.18 206.233 154.466 205.629 155.007C205.152 155.42 204.898 155.579 205.025 155.357C205.374 154.784 203.372 154.848 202.768 155.452C202.45 155.77 202.323 156.342 202.418 157.041C202.482 157.614 202.418 158.027 202.291 157.963C202.164 157.868 202.037 157.9 202.037 158.059C202.037 158.186 201.496 158.885 200.892 159.585C200.256 160.284 199.843 160.665 199.938 160.443C200.288 159.839 198.54 159.966 197.84 160.602C197.236 161.142 197.014 163.113 197.586 162.764C197.777 162.636 197.904 162.382 197.872 162.191C197.745 161.206 197.904 160.983 198.349 161.397C198.73 161.746 198.699 161.905 198.158 162.509C197.777 162.891 197.395 163.177 197.3 163.081C197.173 163.018 196.791 163.399 196.473 163.908C196.124 164.417 195.71 164.83 195.583 164.83C195.424 164.83 195.647 164.353 196.028 163.781C196.696 162.859 196.696 162.795 196.092 163.336C195.52 163.844 195.424 163.844 195.265 163.431C195.138 163.145 195.234 162.954 195.456 163.018C195.679 163.05 195.869 162.605 195.933 161.905C196.092 160.157 197.554 158.79 199.239 158.79C200.256 158.79 200.479 158.694 200.32 158.281C200.225 158.027 200.256 157.9 200.447 157.995C200.638 158.122 200.765 157.836 200.765 157.359C200.765 156.119 201.623 154.721 202.768 154.021C203.88 153.322 205.533 153.29 206.106 153.894ZM195.869 157.868C196.187 158.408 195.456 159.012 195.011 158.567C194.63 158.186 194.884 157.518 195.361 157.518C195.52 157.518 195.742 157.677 195.869 157.868ZM195.265 164.639C195.329 165.656 194.248 166.419 193.644 165.752C193.39 165.466 193.39 165.434 193.676 165.593C193.898 165.72 194.343 165.656 194.63 165.497C195.106 165.211 195.043 165.18 194.216 165.148C192.913 165.148 192.309 165.815 192.849 166.674C193.167 167.182 193.167 167.405 192.849 167.818C192.627 168.104 192.341 168.263 192.214 168.2C192.086 168.104 191.705 168.486 191.387 168.994C190.751 169.916 190.274 170.171 190.274 169.598C190.274 169.408 190.37 169.28 190.529 169.28C190.656 169.28 190.942 168.994 191.164 168.645C191.609 167.882 191.451 167.818 190.815 168.486C190.401 168.899 190.306 168.899 190.147 168.454C190.052 168.2 190.115 168.072 190.274 168.168C190.433 168.263 190.656 167.945 190.783 167.468C191.196 165.625 191.355 165.307 192.214 164.48C193.453 163.304 195.17 163.399 195.265 164.639ZM190.147 169.694C190.243 170.711 189.193 171.506 188.558 170.87C188.303 170.616 188.367 170.584 188.844 170.743C189.352 170.902 189.416 170.87 189.098 170.552C188.685 170.107 187.572 170.393 187.89 170.87C188.017 171.061 187.922 171.156 187.668 171.124C187.413 171.061 187.254 171.347 187.223 171.887C187.191 172.777 185.887 175.003 185.41 175.003C185.252 175.003 185.442 174.589 185.824 174.049C186.332 173.349 186.364 173.159 186.015 173.286C185.601 173.445 185.506 173.254 185.506 172.459C185.506 171.029 187.922 168.549 189.193 168.708C189.861 168.772 190.084 168.994 190.147 169.694ZM171.773 171.537C172.377 172.491 172.122 172.555 171.232 171.633C170.755 171.156 170.66 170.87 170.946 170.87C171.169 170.87 171.55 171.156 171.773 171.537ZM188.049 172.11C188.049 172.237 187.827 172.618 187.54 172.968C187.095 173.54 187.064 173.54 187.413 172.841C187.604 172.459 187.668 171.951 187.54 171.76C187.413 171.537 187.445 171.506 187.668 171.633C187.89 171.76 188.049 171.983 188.049 172.11ZM182.804 176.91C182.772 177.45 182.677 177.959 182.581 178.054C182.422 178.182 182.454 176.37 182.613 176.02C182.772 175.702 182.836 176.115 182.804 176.91Z" fill="#FFD700"/>
<path d="M200.765 158.631C200.352 159.076 200.097 159.489 200.193 159.616C200.288 159.712 200.701 159.33 201.083 158.822C201.909 157.645 201.782 157.55 200.765 158.631Z" fill="#FFD700"/>
<path d="M196.505 133.867C196.219 134.121 196.06 134.471 196.124 134.598C196.219 134.725 196.092 134.852 195.838 134.852C195.583 134.852 195.488 134.693 195.583 134.502C195.679 134.312 195.361 134.502 194.852 134.947C193.422 136.155 193.263 136.346 193.676 136.092C193.962 135.933 194.026 136.028 193.898 136.346C193.803 136.632 193.612 136.791 193.453 136.696C193.326 136.632 192.881 136.95 192.468 137.427C191.769 138.222 191.769 138.222 192.436 137.681C192.818 137.332 193.135 137.205 193.135 137.332C193.135 137.491 193.294 137.459 193.517 137.236C193.994 136.759 194.502 136.728 194.216 137.236C194.089 137.459 194.121 137.491 194.375 137.363C194.566 137.236 194.661 136.982 194.534 136.823C194.248 136.346 195.043 135.583 195.838 135.583C196.855 135.583 198.063 134.534 197.809 133.898C197.554 133.231 197.141 133.231 196.505 133.867ZM197.395 134.693C197.109 135.138 196.664 134.63 196.855 134.121C196.982 133.739 197.109 133.708 197.3 134.026C197.427 134.248 197.459 134.566 197.395 134.693Z" fill="#FFD700"/>
<path d="M191.419 138.953C191.133 139.207 190.974 139.557 191.037 139.684C191.133 139.811 191.006 139.938 190.751 139.938C190.497 139.938 190.402 139.78 190.497 139.589C190.592 139.398 190.274 139.589 189.766 140.034C188.335 141.242 188.176 141.433 188.589 141.178C188.876 141.019 188.939 141.115 188.812 141.433C188.717 141.719 188.526 141.878 188.367 141.782C188.24 141.719 187.795 142.037 187.381 142.513C186.682 143.308 186.682 143.308 187.35 142.768C187.731 142.418 188.049 142.291 188.049 142.418C188.049 142.577 188.208 142.545 188.431 142.323C188.907 141.846 189.416 141.814 189.13 142.323C189.003 142.545 189.035 142.577 189.289 142.45C189.48 142.323 189.575 142.068 189.448 141.909C189.162 141.433 189.956 140.67 190.751 140.67C191.768 140.67 192.976 139.621 192.722 138.985C192.468 138.317 192.055 138.317 191.419 138.953ZM192.309 139.78C192.023 140.225 191.578 139.716 191.768 139.207C191.896 138.826 192.023 138.794 192.214 139.112C192.341 139.334 192.372 139.652 192.309 139.78Z" fill="#FFD700"/>
<path d="M213.672 140.32C213.417 140.733 214.721 141.782 215.039 141.433C215.229 141.274 215.039 140.924 214.594 140.574C214.18 140.288 213.767 140.161 213.672 140.32Z" fill="#FFD700"/>
<path d="M215.897 143.817C215.611 144.135 215.484 144.484 215.611 144.58C215.706 144.707 215.452 144.802 215.007 144.802C214.021 144.802 213.703 145.088 214.18 145.661C214.371 145.883 214.434 146.169 214.307 146.296C214.212 146.392 214.117 146.328 214.117 146.137C214.117 145.915 213.958 145.756 213.767 145.756C213.576 145.756 213.513 146.01 213.64 146.36C213.735 146.71 213.64 147.091 213.449 147.218C213.195 147.377 213.131 147.282 213.226 146.964C213.354 146.71 213.258 146.487 213.004 146.487C212.559 146.487 212.146 147.918 212.527 148.14C212.654 148.204 213.195 147.822 213.767 147.282C214.498 146.551 214.721 146.137 214.562 145.629C214.371 145.088 214.434 145.025 214.784 145.343C215.42 145.851 216.501 145.088 215.929 144.516C215.643 144.198 215.643 144.135 216.024 144.166C216.819 144.294 217.296 144.166 217.296 143.88C217.296 143.308 216.374 143.276 215.897 143.817Z" fill="#FFD700"/>
<path d="M186.332 144.039C186.046 144.294 185.919 144.707 186.046 144.898C186.205 145.184 186.142 145.184 185.792 144.898C185.442 144.612 185.124 144.739 184.234 145.502C183.63 146.042 183.312 146.392 183.503 146.265C183.789 146.106 183.853 146.201 183.726 146.519C183.63 146.805 183.44 146.964 183.281 146.869C183.153 146.805 182.708 147.123 182.295 147.6C181.596 148.395 181.596 148.395 182.263 147.854C182.645 147.504 182.963 147.377 182.963 147.504C182.963 147.663 183.122 147.632 183.344 147.409C183.821 146.932 184.33 146.9 184.044 147.409C183.916 147.632 183.948 147.663 184.203 147.536C184.393 147.409 184.489 147.155 184.362 146.996C184.075 146.519 184.87 145.756 185.665 145.756C186.682 145.756 187.89 144.707 187.636 144.071C187.382 143.404 186.968 143.404 186.332 144.039ZM187.223 144.866C186.936 145.311 186.491 144.802 186.682 144.294C186.809 143.912 186.936 143.88 187.127 144.198C187.254 144.421 187.286 144.739 187.223 144.866Z" fill="#FFD700"/>
<path d="M181.246 149.126C180.96 149.38 180.801 149.73 180.865 149.857C180.96 149.984 180.833 150.111 180.578 150.111C180.324 150.111 180.229 149.952 180.324 149.762C180.42 149.571 180.102 149.762 179.593 150.207C178.162 151.415 178.003 151.605 178.417 151.351C178.703 151.192 178.766 151.287 178.639 151.605C178.544 151.891 178.353 152.05 178.194 151.955C178.067 151.891 177.622 152.209 177.209 152.686C176.509 153.481 176.509 153.481 177.177 152.941C177.558 152.591 177.876 152.464 177.876 152.591C177.876 152.75 178.035 152.718 178.258 152.495C178.735 152.019 179.243 151.987 178.957 152.495C178.83 152.718 178.862 152.75 179.116 152.623C179.307 152.495 179.402 152.241 179.275 152.082C178.989 151.605 179.784 150.842 180.578 150.842C181.596 150.842 182.804 149.793 182.549 149.158C182.295 148.49 181.882 148.49 181.246 149.126ZM182.136 149.952C181.85 150.397 181.405 149.889 181.596 149.38C181.723 148.999 181.85 148.967 182.041 149.285C182.168 149.507 182.2 149.825 182.136 149.952Z" fill="#FFD700"/>
<path d="M176.16 154.212C175.874 154.466 175.715 154.816 175.778 154.943C175.874 155.07 175.746 155.198 175.492 155.198C175.238 155.198 175.142 155.039 175.238 154.848C175.333 154.657 175.015 154.848 174.507 155.293C173.076 156.501 172.917 156.692 173.33 156.437C173.617 156.278 173.68 156.374 173.553 156.692C173.458 156.978 173.267 157.137 173.108 157.041C172.981 156.978 172.536 157.296 172.122 157.772C171.423 158.567 171.423 158.567 172.091 158.027C172.472 157.677 172.79 157.55 172.79 157.677C172.79 157.836 172.949 157.804 173.172 157.582C173.648 157.105 174.157 157.073 173.871 157.582C173.744 157.804 173.776 157.836 174.03 157.709C174.221 157.582 174.316 157.327 174.189 157.168C173.903 156.692 174.697 155.929 175.492 155.929C176.509 155.929 177.717 154.88 177.463 154.244C177.209 153.576 176.796 153.576 176.16 154.212ZM177.05 155.039C176.764 155.484 176.319 154.975 176.509 154.466C176.637 154.085 176.764 154.053 176.954 154.371C177.082 154.594 177.113 154.911 177.05 155.039Z" fill="#FFD700"/>
<path d="M171.073 159.298C170.787 159.553 170.628 159.902 170.692 160.03C170.787 160.157 170.66 160.284 170.406 160.284C170.151 160.284 170.056 160.125 170.151 159.934C170.247 159.743 169.929 159.934 169.42 160.379C167.99 161.587 167.831 161.778 168.244 161.524C168.53 161.365 168.594 161.46 168.467 161.81C168.339 162.096 168.18 162.223 168.085 162.128C167.99 162.032 167.513 162.35 167.004 162.827C166.337 163.463 166.21 163.781 166.464 164.099C166.75 164.417 166.972 164.289 167.513 163.495C168.149 162.541 169.357 161.714 168.816 162.605C168.657 162.891 168.689 162.954 168.943 162.795C169.134 162.668 169.23 162.414 169.102 162.255C168.816 161.778 169.611 161.015 170.406 161.015C171.423 161.015 172.631 159.966 172.377 159.33C172.122 158.663 171.709 158.663 171.073 159.298ZM171.963 160.125C171.677 160.57 171.232 160.061 171.423 159.553C171.55 159.171 171.677 159.139 171.868 159.457C171.995 159.68 172.027 159.998 171.963 160.125Z" fill="#FFD700"/>
<path d="M165.542 164.734C165.319 165.084 165.224 165.116 165.351 164.83C165.447 164.576 165.065 164.893 164.429 165.529C163.825 166.165 163.19 166.61 163.062 166.483C162.903 166.356 163.062 166.578 163.38 166.96C164.016 167.723 164.398 167.945 164.048 167.341C163.603 166.674 165.796 165.18 166.845 165.434C167.004 165.466 167.036 165.338 166.909 165.148C166.814 164.957 166.559 164.893 166.4 164.989C166.241 165.084 166.21 164.957 166.305 164.703C166.559 164.003 166.051 164.067 165.542 164.734Z" fill="#FFD700"/>
<path d="M167.545 169.916C167.863 170.266 168.18 170.488 168.276 170.393C168.498 170.202 167.704 169.28 167.29 169.28C167.131 169.28 167.227 169.566 167.545 169.916Z" fill="#FFD700"/>
<path d="M173.426 175.797C174.666 177.101 174.666 177.101 174.538 176.338C174.475 176.052 174.411 175.67 174.411 175.511C174.379 175.384 174.189 175.32 173.934 175.416C173.68 175.511 173.394 175.384 173.299 175.13C173.203 174.875 172.949 174.685 172.726 174.685C172.536 174.685 172.822 175.193 173.426 175.797Z" fill="#FFD700"/>
<path d="M175.333 176.751C175.524 177.005 175.619 177.355 175.492 177.546C175.397 177.705 175.46 177.864 175.651 177.864C176.192 177.864 176.414 176.878 175.937 176.56C175.238 176.115 174.888 176.211 175.333 176.751Z" fill="#FFD700"/>
<path d="M176.35 177.959C176.033 178.309 176.096 178.531 176.605 178.976C176.954 179.294 177.336 179.453 177.463 179.358C177.558 179.231 177.495 179.135 177.272 179.135C177.05 179.135 176.954 179.04 177.018 178.881C177.113 178.754 177.05 178.404 176.954 178.086C176.764 177.578 176.668 177.546 176.35 177.959Z" fill="#FFD700"/>
<path d="M178.035 179.453C178.131 179.612 178.067 179.771 177.845 179.771C177.59 179.771 177.59 179.898 177.908 180.28C178.29 180.725 178.353 180.725 178.544 180.184C178.894 179.294 178.862 179.135 178.321 179.135C178.067 179.135 177.94 179.262 178.035 179.453Z" fill="#FFD700"/>
</svg>
