<svg width="400" height="400" viewBox="0 0 400 400" fill="none" xmlns="http://www.w3.org/2000/svg">
<path d="M136.484 55.461C138.036 55.6135 139.588 55.7657 141.139 55.9174C144.367 56.2345 147.594 56.556 150.821 56.8809C154.934 57.2947 159.048 57.6978 163.163 58.0977C166.358 58.4094 169.553 58.7264 172.747 59.045C174.264 59.1957 175.78 59.3448 177.297 59.4922C200.003 61.7089 200.003 61.7089 205 67C207.877 71.7007 208.29 74.8172 207.818 80.2721C207.761 80.9668 207.704 81.6615 207.645 82.3772C207.454 84.5878 207.233 86.7934 207 89C206.927 89.6977 206.854 90.3955 206.779 91.1143C206.22 96.2997 205.572 101.473 204.915 106.646C204.702 108.348 204.49 110.05 204.278 111.752C203.709 116.323 203.133 120.892 202.555 125.462C202.071 129.291 201.59 133.121 201.109 136.951C199.974 145.986 198.834 155.02 197.69 164.053C196.513 173.351 195.346 182.65 194.185 191.95C193.183 199.965 192.175 207.979 191.16 215.992C190.556 220.765 189.955 225.539 189.361 230.313C188.803 234.797 188.236 239.279 187.662 243.761C187.454 245.4 187.248 247.039 187.046 248.679C184.257 271.298 184.257 271.298 177 277C172.878 279.106 169.793 279.13 165.215 278.754C164.565 278.702 163.914 278.65 163.245 278.596C155.656 277.952 148.109 276.956 140.562 275.938C139.137 275.749 137.712 275.561 136.287 275.373C132.857 274.92 129.428 274.462 126 274C125.815 274.673 125.631 275.347 125.44 276.04C125.187 276.931 124.933 277.821 124.672 278.738C124.425 279.618 124.179 280.497 123.925 281.404C122.427 285.61 119.919 288.678 117 292C116.52 292.596 116.041 293.191 115.547 293.805C108.938 301.315 98.845 306.021 89 307C88.9517 307.701 88.9035 308.402 88.8538 309.124C88.2432 317.231 87.1717 325.217 85.9375 333.25C85.7512 334.484 85.565 335.717 85.373 336.988C84.9189 339.993 84.4611 342.997 84 346C83.01 346 82.02 346 81 346C81.4563 332.173 83.7709 318.633 86 305C86.5801 304.815 87.1602 304.629 87.7578 304.438C100.949 300.146 112.687 294.316 120.027 282.055C121.264 279.443 122.102 276.745 123 274C122.198 273.914 121.396 273.829 120.569 273.741C116.942 273.351 113.315 272.957 109.688 272.563C107.794 272.36 107.794 272.36 105.861 272.154C104.653 272.022 103.444 271.89 102.199 271.754C100.526 271.573 100.526 271.573 98.8191 271.389C96 271 96 271 93 270C92.34 271.65 91.68 273.3 91 275C89.5745 271.205 90.492 268.867 91.8125 265.125C96.8132 249.708 96.4489 235.778 94 220C93.6455 217.335 93.3203 214.669 93 212C99.8345 207.318 106.86 203.128 114.07 199.057C122.83 194.489 122.83 194.489 129.438 187.563C130.077 184.649 130.037 181.975 130 179C129.378 179.166 128.755 179.332 128.114 179.503C116.259 182.639 104.571 185.635 92.335 186.798C86.942 187.423 84.5659 188.649 81 193C80.3194 193.73 79.6388 194.459 78.9375 195.211C75.8022 198.713 72.8102 202.156 70.1875 206.063C69.4656 207.032 68.7437 208.001 68 209C67.01 209 66.02 209 65 209C65.6047 205.88 66.5728 203.891 68.5 201.375C69.0311 200.679 69.5622 199.983 70.1094 199.266C72.8831 195.942 75.95 192.906 79.0469 189.883C84.0053 182.564 83.6895 171.938 84.625 163.375C84.7591 162.18 84.8931 160.985 85.0312 159.754C85.358 156.836 85.6808 153.918 86 151C85.4417 151.457 84.8833 151.913 84.3081 152.384C79.4557 156.269 74.7067 159.471 69.125 162.188C63.6829 164.838 60.2031 166.866 57.9636 172.7C57.6495 173.732 57.3354 174.765 57.0117 175.828C56.642 177.005 56.2723 178.182 55.8914 179.394C55.6961 180.021 55.5008 180.649 55.2997 181.295C51.05 194.868 45.8626 207.823 39.9109 220.735C34.2247 233.162 28.6377 246.338 29.1133 260.188C29.5302 275.939 29.5842 290.104 24.0493 305.07C22.7659 308.654 21.6229 312.277 20.4805 315.906C19.8152 317.996 19.1473 320.085 18.478 322.173C18.0365 323.551 17.5967 324.929 17.1588 326.308C16.5417 328.236 15.906 330.157 15.2695 332.078C14.9045 333.196 14.5394 334.314 14.1633 335.466C13.7794 336.302 13.3955 337.138 13 338C12.01 338.33 11.02 338.66 10 339C10.5818 332.793 11.9824 327.266 13.9062 321.348C14.4909 319.501 15.0756 317.654 15.6602 315.807C16.5795 312.932 17.5016 310.058 18.4253 307.184C19.3218 304.386 20.2081 301.586 21.0938 298.785C21.3698 297.938 21.6459 297.091 21.9303 296.218C24.314 288.664 25.196 281.516 24.957 273.594C24.472 251.331 28.2083 236.034 37.498 216.099C43.8695 202.395 49.3143 188.354 53.9834 173.971C56.3833 166.793 58.8737 162.528 65.7422 158.938C67.1149 158.281 68.4927 157.636 69.875 157C74.1308 155.021 78.0912 153.038 81.8828 150.25C85 148 85 148 87 148C87.0748 146.881 87.0748 146.881 87.151 145.74C87.8039 136.593 88.8114 127.509 89.9258 118.41C90.0192 117.646 90.1125 116.882 90.2088 116.095C90.7021 112.068 91.2 108.041 91.7009 104.014C92.1122 100.702 92.514 97.3879 92.908 94.073C93.3877 90.0362 93.8831 86.0016 94.3898 81.968C94.579 80.4413 94.7628 78.914 94.9409 77.386C95.1908 75.2526 95.4608 73.1227 95.7356 70.9925C95.9576 69.1793 95.9576 69.1793 96.184 67.3295C97.3947 62.3897 99.8321 59.138 103.438 55.625C113.032 51.2488 126.155 54.4183 136.484 55.461ZM136 64C139.901 66.1174 143.634 66.6554 148 67.125C149.124 67.2524 149.124 67.2524 150.271 67.3824C156.523 68.0457 162.714 68.218 169 68C169 67.67 169 67.34 169 67C165.376 66.489 161.751 65.9933 158.125 65.5C157.112 65.3569 156.099 65.2139 155.055 65.0664C148.658 64.2053 142.453 63.8068 136 64ZM107 72C104.024 97.0745 101.181 122.163 98.4265 147.262C98.1873 149.44 97.9472 151.617 97.707 153.793C97.2537 157.902 96.8043 162.012 96.3555 166.121C96.1496 167.986 96.1496 167.986 95.9395 169.888C95.8153 171.031 95.6912 172.175 95.5632 173.353C95.454 174.352 95.3447 175.35 95.2321 176.379C94.9412 179.225 94.9412 179.225 95 183C107.89 181.085 120.402 178.327 133 175C133.693 178.534 134.241 181.478 133.375 185C133.238 185.619 133.102 186.238 132.961 186.875C129.223 195.142 121.595 198.481 114 202.688C112.812 203.356 111.624 204.026 110.438 204.697C108.253 205.93 106.066 207.157 103.875 208.378C101.222 209.875 98.6044 211.419 96 213C96.0909 213.625 96.1818 214.249 96.2754 214.893C96.6894 217.761 97.0948 220.63 97.5 223.5C97.6431 224.482 97.7862 225.465 97.9336 226.477C98.0689 227.443 98.2043 228.41 98.3438 229.406C98.4694 230.286 98.5951 231.166 98.7246 232.072C99.0692 235.736 99.0413 239.321 99 243C113.332 244.676 127.666 246.343 142 248C142.786 248.091 143.573 248.182 144.383 248.276C148.859 248.794 153.335 249.305 157.812 249.813C159.416 249.998 159.416 249.998 161.052 250.187C162.031 250.297 163.011 250.406 164.02 250.52C164.846 250.613 165.672 250.707 166.523 250.804C169.356 251.028 172.159 251.012 175 251C177.675 233.412 179.72 215.757 181.737 198.084C182.203 194.001 182.673 189.919 183.142 185.837C183.927 179.007 184.709 172.178 185.49 165.348C186.392 157.456 187.297 149.564 188.204 141.672C189.081 134.045 189.956 126.417 190.83 118.79C191.2 115.555 191.572 112.319 191.943 109.084C192.379 105.291 192.813 101.497 193.246 97.7026C193.405 96.3105 193.565 94.9185 193.725 93.5266C193.943 91.6306 194.159 89.7344 194.375 87.8381C194.496 86.7768 194.618 85.7154 194.743 84.6219C195.049 81.9415 195.049 81.9415 195 79C180.334 77.6546 165.668 76.3206 151 75C150.094 74.9184 149.189 74.8368 148.256 74.7528C143.351 74.3115 138.446 73.8749 133.541 73.4457C132.07 73.3166 130.599 73.186 129.129 73.0541C121.738 72.3922 114.426 71.8363 107 72ZM127.062 255.063C125.333 258.216 126.141 260.625 127 264C129.827 266.333 129.827 266.333 133.062 265.75C136.099 265.241 136.099 265.241 138 263C138.33 259.897 138.505 257.842 136.875 255.125C133.583 253.15 130.408 253.228 127.062 255.063Z" fill="#191919"/>
<path d="M251 113C252.764 114.348 252.764 114.348 254.539 116.062C255.527 117.004 255.527 117.004 256.534 117.965C257.224 118.637 257.914 119.308 258.625 120C260.06 121.373 261.497 122.746 262.934 124.117C263.63 124.785 264.325 125.452 265.042 126.14C267.547 128.52 270.106 130.828 272.688 133.125C279.379 139.117 279.379 139.117 282 142C282 142.66 282 143.32 282 144C278.357 145.761 274.713 147.521 271.069 149.28C269.834 149.875 268.6 150.472 267.365 151.069C264.388 152.508 261.408 153.941 258.423 155.365C256.209 156.422 254.001 157.492 251.799 158.577C250.83 159.042 249.862 159.508 248.863 159.988C248.017 160.402 247.17 160.817 246.298 161.243C243.648 162.116 242.549 162.084 240 161C238.495 159.776 238.495 159.776 237.082 158.227C236.291 157.369 236.291 157.369 235.483 156.493C234.932 155.877 234.381 155.26 233.812 154.625C233.237 153.993 232.661 153.361 232.067 152.71C227.933 148.138 223.991 143.43 220.145 138.613C217.128 134.937 213.901 131.467 210.652 127.996C209 126 209 126 209 124C214.334 122.26 219.673 120.533 225.016 118.818C226.833 118.233 228.648 117.644 230.463 117.051C233.071 116.2 235.683 115.363 238.297 114.527C239.513 114.126 239.513 114.126 240.753 113.716C241.514 113.476 242.274 113.236 243.058 112.988C243.724 112.773 244.39 112.557 245.076 112.335C247.368 111.936 248.814 112.242 251 113Z" fill="#38A1FF"/>
<path d="M216 200C217.394 201.569 217.394 201.569 218.844 203.801C219.392 204.634 219.94 205.466 220.505 206.324C221.092 207.239 221.68 208.155 222.285 209.098C222.901 210.039 223.517 210.98 224.151 211.949C226.131 214.981 228.097 218.021 230.062 221.062C231.36 223.056 232.659 225.049 233.959 227.041C235.864 229.962 237.768 232.884 239.665 235.81C242.468 240.131 245.282 244.441 248.164 248.71C248.636 249.411 249.109 250.112 249.596 250.834C250.461 252.112 251.331 253.387 252.205 254.658C255 258.783 255 258.783 255 261C251.254 262.036 247.503 263.051 243.75 264.062C242.687 264.357 241.623 264.652 240.527 264.955C239.503 265.229 238.478 265.503 237.422 265.785C236.008 266.17 236.008 266.17 234.565 266.563C231.889 267.019 230.49 267.045 228 266C226.524 264.621 226.524 264.621 225.16 262.867C224.654 262.225 224.148 261.583 223.627 260.922C223.111 260.246 222.594 259.571 222.062 258.875C221.55 258.223 221.038 257.57 220.51 256.898C218.986 254.947 217.488 252.979 216 251C215.507 250.345 215.015 249.691 214.507 249.017C211 244.25 211 244.25 211 242C212.957 241.33 214.916 240.664 216.875 240C217.966 239.629 219.056 239.257 220.18 238.875C223 238 223 238 225 238C224.364 237.041 223.728 236.082 223.072 235.094C220.72 231.545 218.373 227.992 216.028 224.438C215.011 222.898 213.992 221.36 212.972 219.823C211.508 217.616 210.051 215.406 208.594 213.195C208.134 212.506 207.675 211.816 207.202 211.105C204 206.228 204 206.228 204 204C205.434 203.326 206.873 202.661 208.312 202C209.113 201.629 209.914 201.257 210.738 200.875C213 200 213 200 216 200Z" fill="#38A1FF"/>
<path d="M244.052 67.5166C246.952 69.7254 249.515 72.2309 252.078 74.8125C252.65 75.382 253.221 75.9515 253.81 76.5383C255.012 77.7395 256.212 78.9433 257.41 80.1494C259.25 82.0004 261.101 83.8404 262.953 85.6797C264.12 86.8483 265.287 88.0175 266.453 89.1875C267.009 89.7396 267.565 90.2917 268.138 90.8606C272 94.77 272 94.77 272 97C267.665 98.4799 263.323 99.94 258.975 101.382C257.497 101.876 256.021 102.374 254.546 102.878C252.426 103.602 250.3 104.307 248.172 105.008C247.514 105.237 246.857 105.466 246.18 105.702C243.596 106.536 241.609 107.149 238.932 106.492C236.036 104.255 233.479 101.723 230.922 99.1172C230.35 98.5429 229.779 97.9686 229.19 97.377C227.372 95.5476 225.561 93.7114 223.75 91.875C222.516 90.631 221.282 89.3875 220.047 88.1445C217.026 85.1016 214.011 82.0524 211 79C212.954 75.0922 218.573 74.5239 222.557 73.1719C223.255 72.9392 223.954 72.7065 224.673 72.4668C226.799 71.7545 228.916 71.0186 231.033 70.2812C232.382 69.8266 233.732 69.3735 235.082 68.9219C236.312 68.5052 237.541 68.0885 238.808 67.6592C242 67 242 67 244.052 67.5166Z" fill="#38A1FF"/>
<path d="M89 107C88.5165 114.904 87.5615 122.719 86.5 130.562C86.3694 131.538 86.2388 132.514 86.1042 133.52C85.9134 134.904 85.9134 134.904 85.7188 136.316C85.5476 137.561 85.5476 137.561 85.373 138.83C84.5602 143.558 84.5602 143.558 82.4812 145.198C80.3922 146.42 78.2983 147.629 76.1875 148.812C75.4624 149.245 74.7373 149.677 73.9902 150.123C72.9335 150.721 72.9335 150.721 71.8555 151.332C70.891 151.885 70.891 151.885 69.907 152.448C68 153 68 153 65.9458 152.354C63.6967 150.789 62.5257 149.281 61.0117 147C60.4731 146.199 59.9345 145.399 59.3796 144.574C58.8212 143.725 58.2628 142.875 57.6875 142C56.5317 140.272 55.3755 138.544 54.2188 136.816C53.6657 135.985 53.1127 135.154 52.543 134.297C50.1342 130.711 47.6119 127.211 45.0742 123.715C44 122 44 122 44 120C50.0861 118.145 56.1734 116.294 62.2617 114.446C64.334 113.816 66.4059 113.186 68.4775 112.554C71.4504 111.648 74.4243 110.746 77.3984 109.844C78.3287 109.559 79.2589 109.275 80.2174 108.982C81.5085 108.592 81.5085 108.592 82.8257 108.193C83.5851 107.962 84.3446 107.731 85.127 107.494C87 107 87 107 89 107Z" fill="#38A1FF"/>
<path d="M379 94C383.177 96.2074 386.188 98.9084 389 102.687C392.407 113.973 388.493 124.374 383.18 134.453C380.906 138.391 378.522 142.217 376 146C365.687 141.382 361.414 129.678 357 120C355.248 114.743 354.895 108.877 356.906 103.641C361.939 95.0598 369.384 91.4835 379 94ZM368 103C368 108.94 368 114.88 368 121C368.33 121 368.66 121 369 121C369 115.39 369 109.78 369 104C371.31 104 373.62 104 376 104C376.33 105.32 376.66 106.64 377 108C377.382 106.344 377.714 104.675 378 103C376.83 101.603 376.83 101.603 373.562 101.875C370.159 101.747 370.159 101.747 368 103ZM374 109C373.01 109.495 373.01 109.495 372 110C372 110.66 372 111.32 372 112C373.65 112 375.3 112 377 112C376.34 111.67 375.68 111.34 375 111C374.67 110.34 374.34 109.68 374 109ZM377 112C377.33 113.98 377.66 115.96 378 118C378.66 117.67 379.32 117.34 380 117C379.67 115.35 379.34 113.7 379 112C378.34 112 377.68 112 377 112ZM372 120C372.99 120.33 373.98 120.66 375 121C375.99 120.01 376.98 119.02 378 118C375.537 118 374.148 118.854 372 120Z" fill="#38A1FF"/>
<path d="M299.797 256.047C304.768 259.836 306.681 263.804 307.562 269.875C307.174 280.324 301.052 294.401 294 302C292.68 302 291.36 302 290 302C282.43 294.361 275.906 283.278 273.938 272.687C274.034 266.994 275.791 263.015 278.688 258.187C284.927 252.286 292.386 251.729 299.797 256.047ZM288 261C287.301 263.581 286.615 266.164 285.938 268.75C285.738 269.48 285.539 270.209 285.334 270.961C284.363 274.71 283.846 277.303 285 281C285.33 279.68 285.66 278.36 286 277C289.63 277 293.26 277 297 277C297.66 278.32 298.32 279.64 299 281C298.386 276.581 296.738 273.222 294.625 269.312C294.019 268.174 293.413 267.036 292.789 265.863C291.15 262.803 291.15 262.802 288 261Z" fill="#38A1FF"/>
<path d="M277 100C283.44 105.281 289.315 111.095 295.209 116.969C296.951 118.701 298.703 120.422 300.455 122.143C301.563 123.244 302.671 124.346 303.777 125.449C304.302 125.962 304.827 126.474 305.368 127.002C309 130.657 309 130.657 309 134C306.922 134.868 304.838 135.719 302.75 136.562C301.59 137.038 300.43 137.514 299.234 138.004C294.712 139.397 294.712 139.397 292 138C289.951 136.194 288.072 134.401 286.188 132.438C285.653 131.892 285.118 131.346 284.567 130.784C281.181 127.304 277.946 123.723 274.801 120.023C271.066 115.827 267.007 111.934 263 108C263.33 107.01 263.66 106.02 264 105C266.941 103.613 266.941 103.613 270.562 102.312C272.359 101.657 272.359 101.657 274.191 100.988C275.118 100.662 276.045 100.336 277 100Z" fill="#38A1FF"/>
<path d="M206 247C207.6 248.611 207.6 248.611 209.129 250.676C209.689 251.422 210.249 252.167 210.826 252.936C211.399 253.72 211.972 254.504 212.562 255.313C213.139 256.085 213.716 256.858 214.311 257.654C215.388 259.1 216.462 260.548 217.53 262.001C218.554 263.394 219.633 264.748 220.75 266.067C221.369 267.024 221.369 267.024 222 268C221.505 269.485 221.505 269.485 221 271C218.133 272.075 218.133 272.075 214.34 273.043C213.675 273.216 213.011 273.39 212.326 273.568C210.2 274.12 208.069 274.654 205.938 275.188C204.496 275.558 203.056 275.93 201.615 276.303C198.08 277.215 194.541 278.112 191 279C189.947 277.619 188.919 276.22 187.902 274.813C187.327 274.035 186.752 273.258 186.16 272.457C185 270 185 270 185.521 267.355C186.245 265.718 187.02 264.103 187.832 262.508C189.605 258.7 189.731 255.163 190 251C191.91 250.132 193.829 249.281 195.75 248.438C196.817 247.962 197.885 247.486 198.984 246.996C202.159 245.947 202.993 245.814 206 247Z" fill="#38A1FF"/>
<path d="M251 59C252.696 60.7125 254.332 62.4856 255.922 64.2968C260.132 69.0119 264.468 73.5606 268.953 78.0156C269.549 78.608 270.144 79.2003 270.758 79.8106C272.587 81.6258 274.418 83.4383 276.25 85.25C289.966 98.8153 289.966 98.8153 295.206 104.983C299.404 109.702 304.005 114.065 308.5 118.5C314.302 124.224 320.074 129.919 325.381 136.115C328.306 139.522 331.344 142.809 334.438 146.062C335.054 146.75 335.671 147.438 336.307 148.146C340.25 152.251 340.25 152.251 345.77 153.094C347.188 152.764 348.598 152.396 350 152C351.817 151.6 353.635 151.203 355.453 150.809C358.377 150.123 361.298 149.426 364.219 148.728C365.162 148.507 366.106 148.286 367.078 148.059C367.928 147.855 368.778 147.652 369.653 147.443C372 147 372 147 376 147C376 147.66 376 148.32 376 149C346.866 159.104 346.866 159.104 340 157C337.524 154.994 337.524 154.994 334.945 152.371C334.248 151.669 334.248 151.669 333.537 150.953C332.057 149.457 330.591 147.947 329.125 146.437C328.148 145.449 327.17 144.461 326.191 143.475C321.521 138.744 317 133.923 312.667 128.879C309.606 125.429 306.292 122.229 303 119C298.351 114.44 293.903 109.81 289.652 104.875C287.225 102.121 284.628 99.5614 282 97C278.077 93.1301 274.346 89.1918 270.773 84.9922C267.81 81.6636 264.595 78.5877 261.426 75.457C259.258 73.2614 257.204 71.0209 255.188 68.6875C254.628 68.0558 254.069 67.4242 253.492 66.7734C252 65 252 65 249.812 61.8125C247.242 59.7586 247.242 59.7586 244.762 60.1562C242.157 60.7752 239.621 61.5162 237.074 62.3408C233.686 63.4174 230.268 64.3881 226.852 65.3679C224.969 65.909 223.089 66.4585 221.211 67.0168C219.9 67.401 219.9 67.401 218.562 67.7929C217.78 68.0252 216.998 68.2575 216.191 68.4968C214 69 214 69 210 69C210 68.01 210 67.02 210 66C231.812 59.1878 231.812 59.1878 240.625 56.875C241.566 56.6249 242.507 56.3748 243.477 56.1172C246.897 55.9583 248.197 57.0554 251 59Z" fill="#1A1A1A"/>
<path d="M260 269C262.075 271.669 263.468 274.016 265 277C265.592 278.104 266.185 279.209 266.795 280.347C268.487 283.511 270.143 286.693 271.786 289.884C272.822 291.894 273.867 293.9 274.912 295.906C275.573 297.185 276.234 298.463 276.895 299.742C277.491 300.896 278.088 302.049 278.702 303.238C280 306 280 306 280 308C280.603 307.783 281.207 307.567 281.828 307.344C282.627 307.065 283.427 306.787 284.25 306.5C285.039 306.222 285.828 305.943 286.641 305.656C289 305 289 305 293 305C293 305.66 293 306.32 293 307C291.442 307.678 289.878 308.342 288.312 309C287.442 309.371 286.572 309.742 285.676 310.125C282.926 311.024 280.866 311.067 278 311C259 275.065 259 275.065 259 271C258.227 271.216 258.227 271.216 257.438 271.436C241.457 275.873 225.391 279.984 209.308 284.039C206.938 284.638 204.568 285.239 202.198 285.842C198.816 286.703 195.432 287.554 192.047 288.402C190.511 288.796 190.511 288.796 188.943 289.197C179.32 291.588 179.32 291.588 175 291C172.095 288.095 170.302 285.905 169 282C172.243 282.559 173.931 283.413 176 286C176 286.66 176 287.32 176 288C176.594 287.85 177.187 287.701 177.799 287.547C184.128 285.953 190.458 284.363 196.789 282.775C199.133 282.187 201.478 281.597 203.822 281.007C216.645 277.778 229.48 274.601 242.352 271.57C243.434 271.311 244.517 271.051 245.633 270.784C255.88 268.4 255.88 268.4 260 269Z" fill="#1A1A1A"/>
<path d="M323 145C324.556 146.215 324.556 146.215 326.016 147.723C326.808 148.53 326.808 148.53 327.617 149.354C328.156 149.917 328.695 150.481 329.25 151.062C329.804 151.63 330.359 152.198 330.93 152.783C332.293 154.182 333.648 155.59 335 157C334.67 157.99 334.34 158.98 334 160C331.567 161.053 329.268 161.903 326.75 162.687C326.081 162.912 325.412 163.137 324.723 163.369C317.552 165.686 317.552 165.686 314 165C311.648 162.918 311.648 162.918 309.375 160.187C308.62 159.294 307.864 158.401 307.086 157.48C306.398 156.662 305.709 155.843 305 155C304.415 154.439 303.83 153.879 303.227 153.301C302 152 302 152 302 150C304.746 148.966 307.495 147.947 310.25 146.937C311.027 146.643 311.805 146.348 312.605 146.045C313.737 145.634 313.737 145.634 314.891 145.215C315.582 144.958 316.273 144.702 316.985 144.437C319.405 143.912 320.697 144.11 323 145Z" fill="#38A1FF"/>
<path d="M107 213C119.71 213.415 132.343 214.309 145 215.5C145.707 215.566 146.414 215.631 147.142 215.699C149.178 215.89 151.214 216.084 153.25 216.281C154.431 216.395 155.612 216.509 156.828 216.627C159.571 216.95 162.292 217.458 165 218C165 223.61 165 229.22 165 235C164.01 235 163.02 235 162 235C161.973 233.438 161.953 231.875 161.938 230.312C161.926 229.442 161.914 228.572 161.902 227.676C162 225.009 162.448 222.605 163 220C162.068 219.97 162.068 219.97 161.118 219.94C148.581 219.525 136.071 218.947 123.563 218C122.438 217.917 121.313 217.834 120.155 217.749C119.115 217.667 118.075 217.585 117.004 217.5C116.084 217.428 115.165 217.356 114.217 217.281C112 217 112 217 110 216C110.012 216.771 110.023 217.542 110.035 218.336C110.049 219.84 110.049 219.84 110.063 221.375C110.074 222.373 110.086 223.37 110.098 224.398C110 227 110 227 109 229C110.196 228.974 110.196 228.974 111.417 228.947C121.484 228.827 131.359 229.576 141.375 230.5C142.997 230.645 144.62 230.79 146.242 230.934C150.162 231.283 154.081 231.639 158 232C158.495 233.485 158.495 233.485 159 235C148.38 235.276 138.085 234.585 127.542 233.346C125.08 233.057 122.616 232.783 120.152 232.51C118.583 232.332 117.014 232.153 115.445 231.973C114.71 231.89 113.975 231.808 113.217 231.723C108.116 231.116 108.116 231.116 107 230C106.927 227.137 106.908 224.299 106.938 221.438C106.942 220.631 106.947 219.825 106.951 218.994C106.963 216.996 106.981 214.998 107 213Z" fill="#191919"/>
<path d="M117 78C119.97 78 122.94 78 126 78C125.67 80.64 125.34 83.28 125 86C125.99 86 126.98 86 128 86C128 83.69 128 81.38 128 79C130.97 79 133.94 79 137 79C137 81.64 137 84.28 137 87C138.65 87 140.3 87 142 87C142 89.97 142 92.94 142 96C139.03 96 136.06 96 133 96C133 93.36 133 90.72 133 88C132.01 88 131.02 88 130 88C130 90.31 130 92.62 130 95C127.03 94.67 124.06 94.34 121 94C121.33 91.69 121.66 89.38 122 87C121.01 87 120.02 87 119 87C118.67 88.98 118.34 90.96 118 93C115.03 93 112.06 93 109 93C109.33 90.03 109.66 87.06 110 84C111.98 83.67 113.96 83.34 116 83C116.33 81.35 116.66 79.7 117 78Z" fill="#38A1FF"/>
<path d="M157.125 116C158.177 116.095 159.229 116.191 160.312 116.289C162.875 116.522 165.438 116.759 168 117C172.933 126.537 174.983 133.149 173 144C171.02 144 169.04 144 167 144C166.505 143.01 166.505 143.01 166 142C167.32 142 168.64 142 170 142C170.027 140.396 170.046 138.792 170.062 137.187C170.074 136.294 170.086 135.401 170.098 134.48C170.11 131.866 170.11 131.866 169 129C168.67 129.33 168.34 129.66 168 130C165.329 130.141 162.676 130.042 160 130C160 127.36 160 124.72 160 122C161.98 122 163.96 122 166 122C166 121.34 166 120.68 166 120C165.091 120.012 164.182 120.023 163.246 120.035C161.989 120.044 160.732 120.053 159.438 120.062C158.765 120.072 158.093 120.081 157.4 120.09C153.868 120.109 150.477 119.983 146.98 119.461C139.744 118.268 139.744 118.268 133.234 120.902C130.856 123.308 130.856 123.308 128.93 125.898C126.132 128.945 123.736 128.924 119.762 129.098C119.077 129.086 118.393 129.074 117.688 129.062C115.862 129.032 115.862 129.032 114 129C113.67 131.97 113.34 134.94 113 138C114.32 138 115.64 138 117 138C117 138.66 117 139.32 117 140C114.69 140 112.38 140 110 140C110.14 137.854 110.287 135.708 110.438 133.562C110.519 132.368 110.6 131.173 110.684 129.941C111 127 111 127 112 126C113.853 125.781 115.707 125.575 117.562 125.375C124.236 124.342 127.404 121.696 132 117C138.725 112.517 149.399 115.273 157.125 116ZM166 123C167 125 167 125 167 125L166 123ZM162 124C162 124.99 162 125.98 162 127C162.99 127.33 163.98 127.66 165 128C164.67 126.68 164.34 125.36 164 124C163.34 124 162.68 124 162 124ZM167 125C168 127 168 127 168 127L167 125Z" fill="#1A1A1A"/>
<path d="M87 102C87 102.66 87 103.32 87 104C74.2728 108.144 61.5262 112.213 48.6875 116C47.6749 116.302 46.6624 116.605 45.6191 116.916C44.6762 117.191 43.7332 117.467 42.7617 117.75C41.5236 118.114 41.5236 118.114 40.2605 118.484C38 119 38 119 34 119C39.4741 126.718 45.2196 134.197 51.0747 141.628C60 153.004 60 153.004 60 156C55.9199 154.447 53.6222 151.537 50.9375 148.25C50.4636 147.679 49.9897 147.109 49.5015 146.521C44.2108 140.115 39.0327 133.611 34 127C33.5163 126.385 33.0326 125.77 32.5342 125.136C31.2758 123.482 30.1286 121.745 29 120C29.33 119.01 29.66 118.02 30 117C31.7488 116.144 31.7488 116.144 34.0742 115.457C34.9555 115.192 35.8369 114.926 36.7449 114.653C37.7159 114.375 38.687 114.098 39.6875 113.812C40.6889 113.518 41.6902 113.223 42.7219 112.92C51.514 110.362 60.3477 107.949 69.1875 105.562C69.8473 105.383 70.5071 105.204 71.1869 105.019C73.0749 104.509 74.9651 104.006 76.8555 103.504C77.945 103.213 79.0345 102.923 80.157 102.623C83 102 83 102 87 102Z" fill="#1A1A1A"/>
<path d="M129 131C131.907 133.219 132.84 134.519 134 138C135.355 138.091 135.355 138.091 136.738 138.184C138.508 138.309 138.508 138.309 140.312 138.437C141.484 138.519 142.656 138.6 143.863 138.684C147 139 147 139 150 140C150.289 139.381 150.577 138.762 150.875 138.125C152 136 152 136 154 134C156.094 133.734 156.094 133.734 158.5 133.75C159.294 133.745 160.088 133.74 160.906 133.734C163 134 163 134 165 136C165.713 140.295 165.684 143.895 163.375 147.625C161 149 161 149 157.938 149.062C156.483 148.537 156.483 148.537 155 148C154.48 146.753 154.48 146.753 153.949 145.48C152.291 142.837 152.291 142.837 149.905 142.514C147.22 142.317 144.567 142.254 141.875 142.25C140.039 142.217 138.203 142.181 136.367 142.141C135.147 142.133 135.147 142.133 133.902 142.126C132 142 132 142 131 141C130.526 141.804 130.051 142.609 129.562 143.437C128 146 128 146 127 147C124.228 147.292 122.586 147.364 120.188 145.875C118.52 143.243 118.936 141.067 119 138C118.34 137.01 117.68 136.02 117 135C120.954 131.166 123.507 130.201 129 131ZM123 134C122.34 134.66 121.68 135.32 121 136C123.31 136 125.62 136 128 136C127.67 135.34 127.34 134.68 127 134C125.68 134 124.36 134 123 134ZM153 139C153.33 139.66 153.66 140.32 154 141C154.66 140.34 155.32 139.68 156 139C157.988 138.602 159.989 138.262 162 138C157.638 135.092 156.847 135.922 153 139ZM129 137C130 139 130 139 130 139L129 137ZM122 139C121.67 139.99 121.34 140.98 121 142C121.66 142.66 122.32 143.32 123 144C125.108 143.681 125.108 143.681 127 143C126.67 141.68 126.34 140.36 126 139C124.68 139 123.36 139 122 139ZM157 141C156.67 142.32 156.34 143.64 156 145C157.32 145.33 158.64 145.66 160 146C160.66 145.01 161.32 144.02 162 143C161.67 142.34 161.34 141.68 161 141C159.68 141 158.36 141 157 141Z" fill="#1A1A1A"/>
<path d="M109 154C121.537 154.322 133.986 155.392 146.456 156.671C148.194 156.849 149.932 157.024 151.67 157.196C154.147 157.443 156.622 157.702 159.098 157.965C159.85 158.039 160.602 158.113 161.378 158.189C164.968 158.585 166.937 158.958 170 161C169.67 161.33 169.34 161.66 169 162C166.841 161.97 164.683 161.865 162.527 161.73C161.861 161.69 161.194 161.65 160.507 161.608C158.317 161.474 156.127 161.331 153.938 161.188C152.437 161.092 150.936 160.997 149.435 160.903C140.326 160.319 131.223 159.676 122.125 158.938C121.135 158.858 120.145 158.779 119.125 158.698C118.22 158.621 117.315 158.544 116.383 158.465C115.603 158.399 114.823 158.333 114.02 158.265C112 158 112 158 109 157C109 156.01 109 155.02 109 154Z" fill="#191919"/>
<path d="M108 163C119.349 163.563 130.629 164.452 141.926 165.675C144.421 165.942 146.917 166.197 149.414 166.451C151.013 166.622 152.612 166.793 154.211 166.965C154.951 167.039 155.692 167.113 156.455 167.189C160.02 167.588 161.957 167.971 165 170C164.67 170.33 164.34 170.66 164 171C161.11 170.987 158.259 170.897 155.375 170.75C154.018 170.683 154.018 170.683 152.633 170.615C143.881 170.134 135.161 169.341 126.438 168.5C125.75 168.434 125.063 168.369 124.355 168.301C111.855 167.098 111.855 167.098 108 166C108 165.01 108 164.02 108 163Z" fill="#191919"/>
<path d="M141.188 119.812C142.089 119.84 142.99 119.867 143.918 119.895C144.949 119.947 144.949 119.947 146 120C145.125 127.875 145.125 127.875 144 129C141.809 128.91 139.622 128.753 137.438 128.562C136.24 128.461 135.042 128.359 133.809 128.254C132.882 128.17 131.955 128.086 131 128C133.095 122.038 134.621 119.557 141.188 119.812ZM137 122C136.34 123.32 135.68 124.64 135 126C137.64 126 140.28 126 143 126C143 124.68 143 123.36 143 122C141.02 122 139.04 122 137 122Z" fill="#1A1A1A"/>
<path d="M132 193C139.701 192.693 148.966 192.483 156 196C156 196.66 156 197.32 156 198C153.125 197.858 150.25 197.712 147.375 197.562C146.567 197.523 145.759 197.484 144.926 197.443C140.548 197.212 136.315 196.831 132 196C132 195.01 132 194.02 132 193Z" fill="#1A1A1A"/>
<path d="M289 263C296 271.207 296 271.207 296 276C293.03 276 290.06 276 287 276C287.141 274.208 287.288 272.416 287.438 270.625C287.519 269.627 287.6 268.63 287.684 267.602C288 265 288 265 289 263Z" fill="#38A2FF"/>
<path d="M137 179C139.938 179.308 142.875 179.622 145.812 179.938C147.063 180.068 147.063 180.068 148.338 180.201C149.14 180.288 149.943 180.375 150.77 180.465C151.508 180.543 152.246 180.622 153.007 180.703C155 181 155 181 158 182C158 182.66 158 183.32 158 184C150.405 184.264 143.426 183.609 136 182C136.33 181.01 136.66 180.02 137 179Z" fill="#1A1A1A"/>
<path d="M147 121C150.63 121 154.26 121 158 121C158.125 127.75 158.125 127.75 157 130C153.7 129.67 150.4 129.34 147 129C147 126.36 147 123.72 147 121ZM149 123C149 124.32 149 125.64 149 127C150.98 127 152.96 127 155 127C155.33 125.68 155.66 124.36 156 123C153.69 123 151.38 123 149 123Z" fill="#191919"/>
</svg>
