<svg width="400" height="400" viewBox="0 0 400 400" fill="none" xmlns="http://www.w3.org/2000/svg">
<path d="M139 50C147.669 56.6246 155.711 67.9783 160 78C160 79.32 160 80.64 160 82C159.34 82 158.68 82 158 82C158.351 82.825 158.701 83.65 159.062 84.5C160.19 88.709 160.27 91.8315 159 96C156.526 99.9287 154.823 101.641 150.562 103.5C145.392 104.226 142.583 103.007 138.25 100.25C135.63 97.6302 135.052 95.5016 134 92C132.101 93.0781 130.206 94.1627 128.312 95.25C127.257 95.8533 126.201 96.4566 125.113 97.0781C122.206 98.8727 119.615 100.807 117 103C117.797 103.329 117.797 103.329 118.609 103.664C119.669 104.14 119.669 104.14 120.75 104.625C121.446 104.927 122.142 105.228 122.859 105.539C129.129 109.818 130.432 117.091 132.199 124.023C132.641 125.712 132.641 125.712 133.092 127.435C137.09 142.918 140.637 158.515 144.229 174.096C146.004 181.788 147.792 189.476 149.582 197.164C149.872 198.411 149.872 198.411 150.168 199.682C153.661 214.682 157.299 229.641 161.183 244.545C170.409 280.181 170.409 280.181 164.125 291.75C148.396 311.18 105.435 316.68 81.7437 319.37C70.7697 320.168 59.8778 319.872 51.0715 312.573C47.0691 308.488 45.9753 303.801 44.5664 298.379C44.2771 297.327 43.9879 296.275 43.6898 295.192C42.7675 291.801 41.8794 288.402 41 285C40.7128 283.9 40.4255 282.8 40.1296 281.666C37.9924 273.441 35.9537 265.193 33.9375 256.938C33.6187 255.638 33.2997 254.339 32.9806 253.04C27.7827 231.857 22.8988 210.609 18.1875 189.313C18.0365 188.63 17.8856 187.948 17.73 187.245C12.765 164.784 12.765 164.784 10.8481 155.492C10.6906 154.73 10.5332 153.967 10.3709 153.182C9.75148 149.538 9.67052 145.938 9.6875 142.25C9.67139 141.535 9.65527 140.819 9.63867 140.082C9.633 133.897 11.198 129.944 15.375 125.438C25.772 117.548 40.691 115.844 53.125 113.25C55.9318 112.654 58.738 112.056 61.5439 111.456C63.2761 111.087 65.0089 110.72 66.7425 110.357C69.8897 109.694 72.9458 109.018 76 108C75.34 107.629 74.68 107.257 74 106.875C72 105 72 105 71.6641 102.297C72.9442 89.7337 86.4572 75.3654 95.7539 67.7148C104.39 61.1215 112.646 55.626 123 52C123.911 51.67 124.823 51.34 125.762 51C134.41 48.1042 134.41 48.1042 139 50ZM96 73C95.2407 73.6768 94.4815 74.3535 93.6992 75.0508C87.3917 81.0097 82.6855 87.7365 78 95C77.3993 95.8714 76.7986 96.7428 76.1797 97.6406C74.8559 99.8639 74.8559 99.8639 74.9648 102.035C76.5422 105.029 78.8359 106.468 81.5625 108.438C82.1039 108.829 82.6453 109.22 83.2031 109.623C84.7928 110.761 86.3962 111.881 88 113C88.8031 113.571 89.6062 114.142 90.4336 114.73C93.9239 117.251 93.9239 117.251 98.0312 117.852C100.551 116.762 101.445 115.498 103 113.25C115.948 94.8138 134.809 85.8615 156 80C154.487 75.5769 152.1 72.0006 149.375 68.25C148.933 67.6382 148.492 67.0264 148.037 66.396C144.357 61.3611 140.587 56.2497 136 52C122.599 52 105.365 64.6389 96 73ZM153 84C153.119 84.6033 153.237 85.2066 153.359 85.8281C154.419 92.4007 154.419 92.4007 152.25 95.5C150 97 150 97 147 98C147 97.34 147 96.68 147 96C147.619 95.9381 148.238 95.8762 148.875 95.8125C151.212 95.1606 151.212 95.1606 152.438 92.75C153.178 89.128 151.975 87.9956 150 85C148.015 85.5629 146.037 86.151 144.062 86.75C142.409 87.2373 142.409 87.2373 140.723 87.7344C137.902 88.7115 137.902 88.7115 136.977 90.9414C137.018 94.5687 139.608 96.4968 142 99C144.82 100.41 146.87 100.245 150 100C152.778 98.7371 154.491 97.6478 156.375 95.25C157.304 91.9054 156.804 89.3408 156 86C155.01 85.34 154.02 84.68 153 84ZM104 116C107.3 116 110.6 116 114 116C112.77 116.28 111.54 116.559 110.273 116.848C108.64 117.251 107.007 117.656 105.375 118.062C104.567 118.242 103.759 118.422 102.926 118.607C97.3838 120.027 94.7472 121.854 91.3013 126.398C86.869 131.855 76.6614 133.25 70 134C55.6161 134.997 55.6161 134.997 51.3125 131.875C46.8501 129.349 44.1918 130.058 39.2891 131.082C33.6955 132.643 28.3448 134.741 23 137C25.7221 133.444 29.5808 132.561 33.6875 131.312C34.3701 131.088 35.0526 130.863 35.7559 130.631C40.6717 129.104 44.8515 128.549 50 129C51.6921 129.956 53.3613 130.955 55 132C62.6079 133.104 70.0935 132.044 77.5 130.25C78.1578 130.093 78.8156 129.937 79.4934 129.775C83.9576 128.586 87.4232 126.925 91 124C92.4119 121.396 92.4119 121.396 93 119C91.565 117.947 90.1002 116.934 88.625 115.938C87.8129 115.369 87.0008 114.801 86.1641 114.215C77.4231 110.859 65.565 115.384 56.6694 117.274C54.1395 117.809 51.6071 118.332 49.0742 118.854C30.4532 122.075 30.4532 122.075 15 132C9.81953 142.03 14.6516 157.852 16.9102 168.262C17.2185 169.719 17.5266 171.177 17.8345 172.635C21.7861 191.162 26.275 209.568 30.7491 227.974C31.6687 231.766 32.5804 235.559 33.4923 239.353C37.6361 256.578 41.8243 273.789 46.4727 290.887C46.7884 292.062 47.1042 293.238 47.4296 294.449C47.8745 296.051 47.8745 296.051 48.3284 297.686C48.5806 298.6 48.8328 299.514 49.0927 300.456C51.0367 305.907 54.0783 309.914 59 313C77.7135 320.018 101.043 311.609 119.562 307.062C120.235 306.9 120.907 306.737 121.599 306.569C142.912 301.503 142.912 301.503 160.562 289.25C163.625 282.325 163.256 274.784 162.059 267.438C161.927 266.601 161.796 265.765 161.66 264.904C159.405 251.549 155.903 238.416 152.63 225.282C151.084 219.064 149.56 212.841 148.034 206.618C147.649 205.05 147.264 203.481 146.879 201.913C142.68 184.824 138.717 167.685 134.844 150.52C132.832 141.631 130.769 132.76 128.422 123.953C128.237 123.232 128.052 122.511 127.862 121.768C126.25 115.907 124.126 111.417 119 108C110.834 106.102 108.116 109.246 104 116Z" fill="#191919"/>
<path d="M311 126C320.009 131.949 328.679 145.209 333 155C333 155.66 333 156.32 333 157C333.626 157.161 334.252 157.321 334.896 157.487C342.883 159.596 350.687 162.139 358.5 164.812C359.741 165.226 360.983 165.639 362.262 166.064C385.556 174.03 385.556 174.03 390 183C391.331 192.188 388.821 200.614 386.117 209.309C385.707 210.667 385.299 212.025 384.891 213.384C383.62 217.598 382.314 221.8 381 226C380.795 226.658 380.589 227.317 380.378 227.995C377.762 236.376 375.091 244.739 372.401 253.096C366.239 272.241 360.159 291.394 354.688 310.75C341.807 356.196 341.807 356.196 328.938 363.812C314.73 369.202 296.191 362.526 282.312 358.312C281.569 358.09 280.825 357.867 280.059 357.637C232.742 343.459 232.742 343.459 224.66 329.723C219.455 318.629 223.722 307.484 227.129 296.406C227.555 294.992 227.981 293.577 228.406 292.162C229.543 288.386 230.694 284.614 231.847 280.842C232.807 277.698 233.76 274.551 234.713 271.405C237.785 261.262 240.886 251.129 244 241C244.207 240.325 244.415 239.649 244.629 238.954C251.419 216.856 258.257 194.767 265.687 172.875C266.249 171.204 266.249 171.204 266.821 169.5C268.758 163.92 271.039 159.034 274.062 153.966C275.241 151.872 275.241 151.872 274.941 148.734C275 146 275 146 277.465 143.578C278.607 142.779 279.766 142.005 280.937 141.25C281.555 140.833 282.172 140.416 282.808 139.987C284.854 138.626 286.921 137.309 289 136C289.743 135.529 290.486 135.057 291.251 134.571C293.509 133.151 295.781 131.757 298.062 130.375C298.776 129.937 299.489 129.499 300.224 129.048C306.87 125.139 306.87 125.139 311 126ZM302.867 132.195C302.06 132.665 301.253 133.134 300.422 133.617C299.581 134.115 298.741 134.612 297.875 135.125C297.058 135.599 296.24 136.074 295.398 136.562C289.794 139.844 284.365 143.341 279 147C280.421 149.959 281.852 152.064 284.125 154.437C295.846 167.575 301.419 183.373 306 200C304.68 200 303.36 200 302 200C301.843 198.267 301.843 198.267 301.684 196.5C301.115 192.016 299.81 188.151 298.062 184C297.76 183.275 297.458 182.55 297.147 181.804C294.788 176.365 292.005 171.281 288.875 166.25C288.468 165.595 288.06 164.94 287.641 164.266C285.116 160.358 282.403 157.173 279 154C275.003 159.841 272.277 165.749 269.852 172.383C269.28 173.929 269.28 173.929 268.697 175.506C263.664 189.369 259.389 203.479 255.078 217.578C254.125 220.691 253.167 223.802 252.209 226.913C249.122 236.937 246.056 246.967 243 257C242.791 257.686 242.582 258.373 242.366 259.08C239.646 268.007 236.941 276.939 234.25 285.875C233.938 286.909 233.626 287.943 233.304 289.008C232.433 291.897 231.567 294.788 230.703 297.68C230.455 298.501 230.207 299.323 229.952 300.17C225.684 313.257 225.684 313.257 227.375 326.438C236.047 339.914 254.089 344.64 268.483 349.36C270.802 350.122 273.117 350.898 275.432 351.676C301.088 361.048 301.088 361.048 327.5 359.812C337.046 354.869 341.35 341.445 344.562 331.699C345.397 329.035 346.199 326.362 347 323.688C347.461 322.183 347.923 320.679 348.386 319.175C349.394 315.892 350.394 312.606 351.389 309.319C353.085 303.712 354.799 298.109 356.516 292.508C358.396 286.37 360.275 280.233 362.146 274.092C365.43 263.321 368.754 252.564 372.152 241.828C372.492 240.752 372.832 239.675 373.182 238.566C374.805 233.428 376.434 228.292 378.077 223.159C380.835 214.483 383.458 205.798 385.551 196.934C385.732 196.202 385.914 195.47 386.101 194.716C387.043 190.477 387.132 187.827 385 184C374.838 171.038 351.854 167.616 337 163C337.475 164.762 337.952 166.524 338.43 168.285C338.695 169.266 338.96 170.247 339.234 171.258C340.058 174.209 341.01 177.101 342 180C342.35 181.329 342.691 182.661 343 184C349.248 185.088 349.248 185.088 355 183C361.646 182.645 367.659 184.729 373.75 187.16C375.912 188.117 375.912 188.117 378 188C378 188.66 378 189.32 378 190C376.915 189.639 375.829 189.278 374.711 188.906C373.266 188.437 371.82 187.968 370.375 187.5C369.306 187.142 369.306 187.142 368.215 186.777C361.844 184.732 357.262 184.339 351 187C349.008 187.376 347.008 187.72 345 188C345.122 189.195 345.122 189.195 345.246 190.414C345.752 198.906 345.752 198.906 343.582 202.062C341.782 203.598 340.058 204.837 338 206C337.325 206.4 336.649 206.799 335.953 207.211C334 208 334 208 331 207C331.687 206.613 332.374 206.227 333.082 205.828C333.983 205.307 334.884 204.787 335.812 204.25C336.706 203.74 337.599 203.229 338.52 202.703C341.955 200.434 341.955 200.434 344 197C343.681 193.706 342.73 190.652 341.75 187.5C341.471 186.572 341.191 185.643 340.903 184.687C334.951 165.669 325.591 143.264 310 130C306.686 130 305.667 130.558 302.867 132.195Z" fill="#1A1A1A"/>
<path d="M311.875 203.063C312.958 203.371 314.04 203.679 315.156 203.996C322.257 206.071 329.231 208.377 336.125 211.063C336.923 211.366 337.721 211.67 338.542 211.983C343.218 213.886 346.752 216.152 350.445 219.6C351.971 221.042 351.971 221.042 353.756 222.169C355.437 223.312 355.437 223.312 358 226C358.997 234.316 356.224 241.007 353.25 248.688C352.585 250.483 352.585 250.483 351.906 252.314C346.775 265.874 346.775 265.874 342.246 269.344C324.339 274.576 304.306 265.558 288.062 258.938C286.543 258.321 286.543 258.321 284.994 257.692C274.443 253.222 274.443 253.222 271 249C270.594 245.835 271.242 243.075 272 240C272.22 239.093 272.439 238.187 272.666 237.252C273.447 234.252 274.302 231.284 275.187 228.312C275.5 227.26 275.812 226.207 276.134 225.122C282.414 204.414 282.414 204.414 287.055 200.082C294.881 197.207 304.197 200.867 311.875 203.063ZM287.8 205.523C285.925 209.145 284.463 212.762 283.203 216.629C282.965 217.341 282.726 218.053 282.48 218.787C281.982 220.282 281.488 221.779 280.999 223.277C280.25 225.563 279.483 227.843 278.715 230.123C278.231 231.583 277.748 233.043 277.266 234.504C277.038 235.181 276.809 235.858 276.575 236.556C275.423 240.117 274.54 243.252 275 247C278.722 250.891 283.509 252.83 288.375 254.938C289.165 255.284 289.955 255.63 290.769 255.987C298.048 259.122 305.412 261.714 313 264C313.789 264.246 314.578 264.492 315.391 264.746C320.094 266.089 325.164 267.085 330 266C333.571 262.25 334.273 258.994 335 254C333.043 253.162 331.085 252.33 329.125 251.5C328.034 251.036 326.944 250.572 325.82 250.094C323.193 248.879 323.193 248.879 321 249C320.631 239.59 320.631 239.59 323 235C328.532 234.806 332.656 235.387 338 237C339.666 237.038 341.334 237.045 343 237C343.703 235.277 344.387 233.546 345.062 231.812C345.445 230.85 345.828 229.887 346.223 228.895C347.092 225.659 347.281 224.099 346 221C332.298 210.718 309.577 204.988 292.898 202.546C289.77 202.718 289.77 202.718 287.8 205.523ZM351 225C350.519 226.416 350.04 227.833 349.562 229.25C349.296 230.039 349.029 230.828 348.754 231.641C348.08 233.748 347.508 235.848 347 238C349.475 238.99 349.475 238.99 352 240C352.534 238.588 353.052 237.17 353.562 235.75C353.853 234.961 354.143 234.172 354.441 233.359C355.06 230.747 355.046 229.461 354 227C353.01 226.34 352.02 225.68 351 225ZM326 237C324.127 239.622 322.982 241.234 323.059 244.508C323.792 247.221 323.792 247.221 326.477 248.512C327.516 248.9 328.555 249.288 329.625 249.688C330.71 250.097 331.796 250.507 332.914 250.93C337.766 252.612 341.796 254 347 254C347.506 252.732 348.005 251.46 348.5 250.188C348.778 249.48 349.057 248.772 349.344 248.043C350.153 245.882 350.153 245.882 350 243C347.126 242.184 344.251 241.372 341.375 240.562C340.567 240.332 339.759 240.102 338.926 239.865C334.633 238.661 330.425 237.623 326 237ZM339 256C337.68 259.3 336.36 262.6 335 266C337.831 266.502 337.831 266.502 341 266C343.639 262.875 345 261.135 345 257C342.03 256.505 342.03 256.505 339 256Z" fill="#38A1FF"/>
<path d="M262 306C267.759 305.693 272.296 306.734 277.75 308.52C278.567 308.779 279.384 309.038 280.226 309.305C281.945 309.853 283.663 310.405 285.379 310.962C287.989 311.809 290.603 312.641 293.219 313.471C294.896 314.007 296.573 314.544 298.25 315.082C299.41 315.453 299.41 315.453 300.593 315.831C305.185 317.325 309.59 319.032 314 321C313.693 327.622 312.257 332.221 309 338C302.254 336.788 295.814 335.145 289.309 332.996C288.437 332.713 287.566 332.429 286.668 332.137C284.848 331.544 283.029 330.948 281.211 330.35C278.415 329.43 275.617 328.52 272.818 327.611C271.044 327.032 269.27 326.452 267.496 325.871C266.658 325.598 265.819 325.325 264.955 325.044C259.116 323.116 259.116 323.116 258 322C258.045 316.07 258.891 311.137 262 306ZM269 312C272.329 314.219 275.681 315.423 279.438 316.687C280.44 317.044 280.44 317.044 281.463 317.408C285.098 318.637 287.351 319.146 291 318C288.087 316.99 285.169 315.994 282.25 315C281.425 314.714 280.6 314.428 279.75 314.133C278.551 313.727 278.551 313.727 277.328 313.312C276.595 313.061 275.862 312.81 275.106 312.551C272.718 311.831 272.718 311.831 269 312Z" fill="#38A1FF"/>
<path d="M127 261C130.221 267.161 131.134 271.033 131 278C125.754 280.402 120.581 282.058 114.996 283.48C113.734 283.807 113.734 283.807 112.446 284.14C110.678 284.596 108.909 285.049 107.139 285.499C104.44 286.187 101.744 286.889 99.0488 287.592C97.3231 288.035 95.5972 288.477 93.8711 288.918C92.6709 289.232 92.6709 289.232 91.4464 289.552C87.195 290.621 83.4237 291.235 79 291C75.8231 285.751 75.343 280.985 75 275C79.5309 271.836 84.2246 270.655 89.5 269.301C90.87 268.941 90.87 268.941 92.2676 268.574C94.193 268.07 96.1195 267.57 98.0469 267.074C100.992 266.314 103.934 265.54 106.875 264.764C108.75 264.275 110.625 263.787 112.5 263.301C113.816 262.954 113.816 262.954 115.158 262.6C119.18 261.573 122.81 260.684 127 261ZM104 271C108 272 108 272 108 272L104 271ZM90.8125 273.875C90.0887 274.049 89.3649 274.223 88.6191 274.402C84.3994 275.42 84.3994 275.42 81 278C88.9071 277.355 96.3913 275.13 104 273C104 272.67 104 272.34 104 272C99.4027 271.729 95.2308 272.747 90.8125 273.875Z" fill="#38A1FF"/>
<path d="M277.5 49.9375C278.909 49.9425 280.318 49.9471 281.727 49.9512C285.151 49.9629 288.576 49.9793 292 50C295.065 56.2278 296.972 62.1885 298.25 69C298.423 69.8379 298.595 70.6758 298.773 71.5391C299.861 77.1172 300.16 82.319 300 88C299.388 88.0146 298.776 88.0292 298.146 88.0442C276.68 88.6097 254.349 89.4625 234.348 98.1523C231.745 99.0919 229.744 99.0618 227 99C224.848 95.1309 222.712 91.2532 220.591 87.3667C219.868 86.0471 219.141 84.73 218.409 83.4155C217.354 81.5203 216.316 79.6168 215.281 77.7109C214.339 75.9985 214.339 75.9985 213.377 74.2515C211.944 70.8682 211.712 68.6298 212 65C233.549 54.9068 253.708 49.7894 277.5 49.9375ZM280.585 53.1348C258.008 54.4814 236.974 58.3807 216 67C217.174 72.5777 219.946 77.5701 222.375 82.6875C222.87 83.7581 223.365 84.8286 223.875 85.9316C224.357 86.9481 224.839 87.9645 225.336 89.0117C225.994 90.411 225.994 90.411 226.666 91.8386C227.875 94.3146 227.875 94.3146 231 95C233.591 94.139 233.591 94.139 236.5 92.8125C242.18 90.5265 247.757 88.99 253.75 87.75C254.529 87.5873 255.308 87.4247 256.111 87.2571C265.565 85.3742 274.941 84.7913 284.562 84.4375C286.219 84.3727 286.219 84.3727 287.908 84.3066C290.605 84.2016 293.303 84.0994 296 84C295.464 77.3929 294.534 71.0243 293.062 64.5625C292.893 63.7742 292.723 62.986 292.549 62.1738C292.379 61.4165 292.21 60.6592 292.035 59.8789C291.809 58.8668 291.809 58.8668 291.578 57.8342C290.997 55.6936 290.997 55.6936 289 53C286.159 52.726 283.428 52.9761 280.585 53.1348Z" fill="#191919"/>
<path d="M91 159C91.495 159.99 91.495 159.99 92 161C91.34 161.99 90.68 162.98 90 164C88.1524 164.188 88.1524 164.188 85.9375 164C78.3648 163.757 71.921 166.29 66 171C60.3492 176.914 57.8669 181.87 57.5625 189.938C57.7718 197.217 59.695 201.588 64.6875 206.813C71.4252 211.262 77.2546 212.613 85.2891 211.578C91.5205 210.249 97.5227 207.605 102 203C106.194 196.119 108.189 189.595 106.469 181.5C105.112 176.545 103.715 172.715 100 169C99.34 168.67 98.68 168.34 98 168C98 166.35 98 164.7 98 163C101.956 163.586 104.158 165.227 107 168C111.958 175.554 113.888 181.963 113 191C110.954 199.775 106.817 207.475 99.4649 212.855C90.9856 218.113 83.9727 218.77 74 218C66.3181 216.111 60.0776 211.108 55.3906 204.852C51.129 197.645 50.8199 190.168 52 182C54.8869 172.909 59.9724 166.388 68.2656 161.727C75.5509 158.233 83.0694 157.043 91 159Z" fill="#38A1FF"/>
<path d="M125 315C125.99 315 126.98 315 128 315C129.727 317.457 129.727 317.457 131.625 320.812C142.02 338.413 156.512 350.906 176.5 356.375C191.837 360.133 209.059 358.98 224 354C222.844 353.476 222.844 353.476 221.664 352.941C220.661 352.486 219.658 352.031 218.625 351.562C217.627 351.11 216.63 350.658 215.602 350.191C214.057 349.484 212.52 348.76 211 348C211.33 347.01 211.66 346.02 212 345C219.825 345.675 227.346 347.269 235 349C235.807 351.81 236.227 353.426 235.135 356.188C234.682 356.903 234.229 357.619 233.762 358.355C233.271 359.142 232.781 359.929 232.275 360.74C231.751 361.548 231.227 362.355 230.688 363.188C230.175 364.007 229.663 364.826 229.135 365.67C225.376 371.624 225.376 371.624 223 374C222.01 374 221.02 374 220 374C220.45 368.147 223.038 363.918 226 359C224.903 359.277 223.806 359.554 222.676 359.84C221.221 360.206 219.767 360.572 218.312 360.938C217.591 361.12 216.87 361.302 216.127 361.49C215.421 361.667 214.715 361.845 213.988 362.027C213.344 362.19 212.7 362.352 212.036 362.519C191.549 367.356 171.958 363.555 154 353C150.43 350.561 147.2 347.904 144 345C143.157 344.25 142.314 343.5 141.445 342.727C133.379 335.151 126.042 326.347 125 315Z" fill="#191919"/>
<path d="M119 120C119.66 120 120.32 120 121 120C128.841 152.094 136.297 184.253 143.305 216.539C144.533 222.198 145.773 227.854 147.016 233.509C147.989 237.943 148.955 242.377 149.919 246.812C150.375 248.903 150.832 250.994 151.292 253.083C151.926 255.963 152.549 258.845 153.171 261.727C153.358 262.568 153.545 263.409 153.737 264.275C154.736 268.96 155.188 273.21 155 278C153 277 153 277 152.307 275.022C152.095 274.132 151.883 273.242 151.665 272.325C151.413 271.281 151.161 270.236 150.902 269.16C150.627 267.978 150.353 266.796 150.07 265.578C149.771 264.314 149.472 263.05 149.164 261.747C144.424 241.587 140.048 221.339 135.612 201.11C134.629 196.627 133.641 192.145 132.653 187.664C123.991 148.351 123.991 148.351 120.82 132.578C120.623 131.601 120.426 130.624 120.224 129.618C119.576 126.326 119 123.363 119 120Z" fill="#1A1A1A"/>
<path d="M378 193C378.66 193.33 379.32 193.66 380 194C372.373 220.882 363.622 247.425 355 274C354.667 275.027 354.667 275.027 354.327 276.075C351.257 285.539 348.179 295 345.089 304.458C344.16 307.303 343.232 310.149 342.306 312.995C341.211 316.363 340.11 319.729 339.006 323.095C338.408 324.921 337.814 326.748 337.221 328.576C335.141 334.893 332.864 340.995 330 347C329.67 347 329.34 347 329 347C329.58 340.853 330.941 335.388 332.859 329.531C333.304 328.145 333.304 328.145 333.758 326.73C334.748 323.651 335.749 320.576 336.75 317.5C337.458 315.309 338.165 313.118 338.872 310.927C341.235 303.614 343.615 296.306 346 289C346.215 288.341 346.43 287.681 346.652 287.002C355.008 261.39 363.401 235.789 371.899 210.224C372.343 208.886 372.787 207.549 373.231 206.211C373.843 204.366 374.457 202.521 375.071 200.677C375.42 199.626 375.769 198.575 376.129 197.493C377 195 377 195 378 193Z" fill="#1A1A1A"/>
<path d="M284 162C285.273 164.547 284.845 165.27 284.094 167.977C283.853 168.848 283.612 169.72 283.364 170.617C282.936 172.106 282.936 172.106 282.5 173.625C282.192 174.707 281.885 175.789 281.568 176.904C272.886 206.98 263.114 236.755 253.562 266.562C253.192 267.721 252.822 268.879 252.44 270.073C248.587 282.111 244.676 294.128 240.59 306.09C240.258 307.077 239.926 308.064 239.584 309.08C239.274 309.978 238.964 310.876 238.644 311.801C238.374 312.591 238.104 313.381 237.826 314.195C237 316 237 316 235 317C238.269 302.804 242.6 288.962 246.938 275.062C247.702 272.604 248.466 270.144 249.229 267.685C255.469 247.618 261.765 227.569 268.18 207.557C269.049 204.846 269.917 202.134 270.785 199.422C272.29 194.722 273.801 190.024 275.316 185.327C275.892 183.542 276.466 181.756 277.039 179.97C277.827 177.512 278.622 175.057 279.418 172.602C279.651 171.872 279.883 171.143 280.123 170.392C281.15 167.245 282.15 164.776 284 162Z" fill="#1A1A1A"/>
<path d="M22 141C25.0202 144.02 25.4213 147.87 26.4116 151.911C26.6434 152.835 26.8752 153.759 27.1141 154.711C27.8835 157.79 28.6415 160.871 29.3984 163.953C29.936 166.123 30.4735 168.293 31.0111 170.463C36.5939 193.097 41.7846 215.819 46.9058 238.562C47.8834 242.896 48.8678 247.228 49.8522 251.56C50.8139 255.796 51.7723 260.032 52.7295 264.269C53.1791 266.258 53.6296 268.246 54.081 270.234C56.323 280.12 58.5384 289.963 60 300C59.34 300 58.68 300 58 300C54.6042 288.674 51.8375 277.234 49.1484 265.723C48.685 263.748 48.2214 261.773 47.7577 259.798C46.7856 255.654 45.816 251.509 44.8481 247.365C43.8805 243.221 42.9092 239.079 41.9341 234.938C36.5091 211.897 31.2358 188.832 26.2891 165.684C26.0691 164.659 25.8491 163.635 25.6224 162.58C25.006 159.703 24.3956 156.825 23.7876 153.947C23.605 153.095 23.4224 152.244 23.2343 151.367C23.0703 150.582 22.9064 149.798 22.7375 148.99C22.5224 147.973 22.5224 147.973 22.3031 146.935C22 145 22 145 22 141Z" fill="#1A1A1A"/>
<path d="M99 147C99.66 147 100.32 147 101 147C98.6827 160.045 95.6103 172.862 92.3125 185.688C92.0066 186.884 92.0066 186.884 91.6946 188.104C91.1095 190.387 90.5188 192.668 89.9258 194.949C89.7467 195.646 89.5677 196.343 89.3832 197.061C88.116 201.884 88.116 201.884 87 203C81.3846 202.705 78.431 201.314 74.1875 197.688C73.2529 196.908 72.3184 196.128 71.3555 195.324C69.2393 193.236 68.0809 191.73 67 189C71.4232 189.583 74.5156 191.268 78.3125 193.562C79.9154 194.523 79.9154 194.523 81.5508 195.504C82.359 195.998 83.1673 196.491 84 197C84.1644 195.115 84.1644 195.115 84.332 193.191C84.9541 187.634 86.2549 182.335 87.6875 176.938C88.0824 175.438 88.0824 175.438 88.4854 173.907C94.551 151.449 94.551 151.449 99 147Z" fill="#38A2FF"/>
<path d="M238 321C241.363 322.903 244.696 324.81 247.973 326.859C270.797 340.825 297.899 345.856 324 350C324 350.33 324 350.66 324 351C309.528 351.699 296.894 350.07 283 346C282.3 345.797 281.6 345.594 280.879 345.385C267.356 341.379 247.255 335.381 238 324C238 323.01 238 322.02 238 321Z" fill="#1A1A1A"/>
<path d="M150 283C150.99 283.495 150.99 283.495 152 284C138.797 294.758 120.325 299.377 104 303C102.921 303.246 101.842 303.492 100.73 303.746C93.5231 305.116 86.3141 305.197 79 305.25C77.4932 305.264 77.4932 305.264 75.9561 305.279C75.0012 305.274 74.0463 305.27 73.0625 305.266C72.2079 305.263 71.3532 305.261 70.4727 305.259C67.697 304.968 65.5346 304.141 63 303C63.33 302.34 63.66 301.68 64 301C64.6421 301.021 65.2842 301.042 65.9458 301.063C93.5922 301.839 118.855 296.833 144.087 285.452C146.035 284.583 148.015 283.784 150 283Z" fill="#1A1A1A"/>
<path d="M309 95C311.897 97.2016 313.393 98.786 315 102C315.418 106.547 315.536 110.674 313.812 114.938C311.137 117.982 308.983 119.699 304.887 120.32C299.445 120.595 296.206 119.705 292 116C289.627 113.073 289.04 111.317 288.562 107.563C289.195 102.412 291.272 99.5709 295.062 96.125C299.675 94.3584 304.135 94.1965 309 95ZM294 102C292.329 104.762 292.329 104.762 292 108C293.388 112.384 294.14 114.427 298 117C301.707 117.343 304.29 117.29 307.75 115.875C310.621 113.482 311.757 111.522 313 108C313 104.113 312.491 102.566 309.938 99.625C304.03 96.3569 298.622 96.8342 294 102Z" fill="#1A1A1A"/>
<path d="M201 26C204.87 28.362 207.554 30.6619 209 35C209.408 39.6308 209.568 43.7015 207.688 48C205.533 50.5541 203.864 51.8834 200.512 52.3359C194.515 52.4189 190.621 52.2656 186 48C183.446 43.7756 183.323 39.8169 184 35C187.503 27.9949 192.967 24.0866 201 26ZM189 32C186.497 35.7546 186.547 37.5475 187 42C188.647 45.1171 190.075 47.2906 192.875 49.4375C195.987 50.2614 197.921 49.9425 201 49C204.02 47.0631 204.02 47.0631 206 44C206.622 40.0794 206.872 37.7152 205.078 34.1875C203.059 31.4598 201.239 30.0865 198.063 28.9375C194.28 29.0147 192.176 29.9789 189 32Z" fill="#1A1A1A"/>
<path d="M315 160C321.395 160.698 321.395 160.698 324 162C326.098 161.601 326.098 161.601 328 161C327.835 161.887 327.67 162.774 327.5 163.688C327.07 166.536 326.916 169.13 327 172C326.01 171.67 325.02 171.34 324 171C323.312 168.938 323.312 168.938 323 167C320.442 167.879 320.442 167.879 318 170C317.236 172.344 316.816 174.602 316.457 177.039C316.306 177.686 316.155 178.333 316 179C313.201 180.399 311.095 180.253 308 180C306.375 178.625 306.375 178.625 305 177C302.9 175.824 302.9 175.824 301 175C301.66 174.34 302.32 173.68 303 173C303.217 171.268 303.217 171.268 303.438 169.5C303.623 168.345 303.809 167.19 304 166C304.99 165.34 305.98 164.68 307 164C307.33 165.98 307.66 167.96 308 170C310.557 168.917 310.557 168.917 313 167C313.816 163.941 313.816 163.941 314 161C314.33 160.67 314.66 160.34 315 160ZM316 163C316 163.99 316 164.98 316 166C317.32 165.67 318.64 165.34 320 165C320 164.34 320 163.68 320 163C318.68 163 317.36 163 316 163ZM308 174C308.66 175.32 309.32 176.64 310 178C310.99 177.67 311.98 177.34 313 177C313.33 175.35 313.66 173.7 314 172C311.537 172 310.148 172.855 308 174Z" fill="#1A1A1A"/>
<path d="M107 70C108.32 70 109.64 70 111 70C110.34 71.98 109.68 73.96 109 76C110.773 78.2145 110.773 78.2145 113.059 78.125C114.642 78.0418 116.225 77.9585 117.809 77.875C120 78 120 78 123 80C123.463 84.8122 122.748 88.5203 121 93C120.319 92.835 119.639 92.67 118.938 92.5C115.584 91.9291 112.396 91.9334 109 92C109 91.34 109 90.68 109 90C110.65 89.34 112.3 88.68 114 88C112.441 85.8542 112.441 85.8542 110 84C106.375 83.7496 106.375 83.7496 103 84C102 83 102 83 101.973 81.0391C102.032 79.4348 102.095 77.8306 102.16 76.2266C102.163 73.7102 102.163 73.7102 100 71C101.454 71.0309 101.454 71.0309 102.938 71.0625C105.875 71.3562 105.875 71.3562 107 70ZM105 78C104.67 78.99 104.34 79.98 104 81C105.32 80.67 106.64 80.34 108 80C107.01 79.34 106.02 78.68 105 78ZM116 81C115.34 81.66 114.68 82.32 114 83C116.475 84.98 116.475 84.98 119 87C119.66 85.35 120.32 83.7 121 82C118.603 81.3204 118.603 81.3204 116 81Z" fill="#1A1A1A"/>
<path d="M254 57C254.99 57.66 255.98 58.32 257 59C258.99 59.3901 260.99 59.732 263 60C263 60.66 263 61.32 263 62C261.68 62.33 260.36 62.66 259 63C259.106 65.4522 259.106 65.4522 260 68C262.41 69.2471 262.41 69.2471 265 70C267 72 267 72 267.438 74.9375C267.293 75.9481 267.149 76.9588 267 78C264.625 79.6875 264.625 79.6875 262 81C261.34 81.99 260.68 82.98 260 84C259.34 83.01 258.68 82.02 258 81C257.154 80.67 256.309 80.34 255.438 80C254.633 79.67 253.829 79.34 253 79C252.67 78.01 252.34 77.02 252 76C253.98 76.33 255.96 76.66 258 77C256.98 73.227 256.341 72.1979 252.875 70.1875C251.926 69.7956 250.978 69.4038 250 69C250.375 66.0625 250.375 66.0625 251 63C251.66 62.67 252.32 62.34 253 62C253.656 59.4727 253.656 59.4727 254 57ZM254 65C253.67 65.99 253.34 66.98 253 68C253.99 68 254.98 68 256 68C255.67 67.01 255.34 66.02 255 65C254.67 65 254.34 65 254 65ZM260 72C260.33 73.98 260.66 75.96 261 78C262.32 77.34 263.64 76.68 265 76C264.34 74.68 263.68 73.36 263 72C262.01 72 261.02 72 260 72Z" fill="#1A1A1A"/>
<path d="M279 267C287.015 267.479 293.913 269.789 301.438 272.5C302.62 272.916 303.803 273.333 305.021 273.762C313.575 276.788 313.575 276.788 316 278C316 278.66 316 279.32 316 280C310.135 280.224 305.344 279.602 299.75 277.875C299.019 277.656 298.287 277.436 297.533 277.21C290.972 275.158 285.002 272.365 279 269C279 268.34 279 267.68 279 267Z" fill="#191919"/>
<path d="M279 274C285.243 274.554 290.482 276.555 296.25 278.938C297.147 279.298 298.044 279.658 298.969 280.029C302.568 281.492 305.754 282.836 309 285C309 285.66 309 286.32 309 287C298.647 285.584 286.824 283.355 279 276C279 275.34 279 274.68 279 274Z" fill="#1A1A1A"/>
<path d="M109 218C109 218.99 109 219.98 109 221C104.517 222.145 100.033 223.285 95.5479 224.418C94.0227 224.804 92.4979 225.192 90.9736 225.582C88.7804 226.142 86.5857 226.697 84.3906 227.25C83.7113 227.425 83.032 227.6 82.3321 227.78C79.0702 228.596 76.395 229 73 229C73 228.34 73 227.68 73 227C81.1939 224.341 89.3961 221.799 97.75 219.688C98.4164 219.516 99.0829 219.345 99.7695 219.169C102.993 218.373 105.647 218 109 218Z" fill="#1A1A1A"/>
<path d="M109 225C109 225.99 109 226.98 109 228C105.524 228.991 102.044 229.965 98.5625 230.938C97.5886 231.215 96.6147 231.493 95.6113 231.779C89.7144 233.416 84.1015 234.502 78 235C78.33 234.01 78.66 233.02 79 232C81.5444 231.017 81.5444 231.017 84.8984 230.176C86.0998 229.87 87.3012 229.563 88.5391 229.248C90.4379 228.785 90.4379 228.785 92.375 228.312C93.6331 227.992 94.8913 227.672 96.1875 227.342C105.515 225 105.515 225 109 225Z" fill="#1A1A1A"/>
<path d="M311 135C293.66 146.957 293.66 146.957 286 152C285.34 151.34 284.68 150.68 284 150C287.684 146.05 291.487 143.16 296.062 140.313C296.674 139.923 297.286 139.533 297.916 139.131C299.598 138.067 301.298 137.032 303 136C304.081 135.341 304.081 135.341 305.184 134.668C307.485 133.822 308.689 134.336 311 135Z" fill="#1A1A1A"/>
<path d="M221 67C224 68 224 68 225.754 71.0625C226.37 72.3688 226.972 73.6818 227.562 75C227.873 75.6768 228.183 76.3537 228.502 77.051C230.694 81.9708 232.157 86.6622 233 92C232.34 92 231.68 92 231 92C229.324 88.4 227.661 84.7944 226 81.1875C225.285 79.6513 225.285 79.6513 224.555 78.084C224.104 77.1011 223.652 76.1182 223.188 75.1055C222.769 74.1995 222.35 73.2935 221.918 72.3601C221 70 221 70 221 67Z" fill="#1A1A1A"/>
<path d="M131 56C135.679 57.3812 138.117 59.975 141.062 63.6875C141.499 64.2255 141.935 64.7635 142.384 65.3179C145.363 69.0501 148.017 72.6555 150 77C149.67 77.66 149.34 78.32 149 79C148.632 78.5467 148.265 78.0935 147.886 77.6265C146.195 75.5423 144.504 73.4587 142.812 71.375C142.234 70.6621 141.656 69.9493 141.061 69.2148C140.49 68.5123 139.92 67.8098 139.332 67.0859C138.771 66.3947 138.21 65.7034 137.631 64.9912C136.13 63.1583 134.606 61.3468 133.074 59.5391C131 57 131 57 131 56Z" fill="#1B1B1B"/>
<path d="M285 55C290.854 59.8005 292.035 69.6578 292.75 76.8125C292.848 78.2074 292.937 79.6031 293 81C291 80 291 80 290.222 78.0222C289.981 77.1731 289.74 76.324 289.492 75.4492C289.228 74.523 288.964 73.5968 288.691 72.6426C288.422 71.6674 288.153 70.6922 287.875 69.6875C287.598 68.7239 287.321 67.7604 287.035 66.7676C285.874 62.642 285 59.3216 285 55Z" fill="#1A1A1A"/>
<path d="M339 197C334.239 200.821 329.84 204.091 324 206C321.562 205.687 321.562 205.687 320 205C320 204.34 320 203.68 320 203C322.599 201.801 325.203 200.615 327.812 199.437C328.919 198.924 328.919 198.924 330.049 198.4C330.761 198.081 331.473 197.762 332.207 197.434C332.862 197.135 333.516 196.837 334.191 196.529C336 196 336 196 339 197Z" fill="#1A1A1A"/>
<path d="M78 101C82.8804 102.675 86.9915 105.368 91.3125 108.125C92.0531 108.593 92.7936 109.061 93.5566 109.543C95.3734 110.692 97.187 111.845 99 113C95.2598 114.094 95.2598 114.094 92.9219 113.25C87.4137 110.08 82.4779 106.539 78 102C78 101.67 78 101.34 78 101Z" fill="#1A1A1A"/>
<path d="M330.5 239.875C333 240 333 240 334 241C334.188 243.438 334.188 243.438 334 246C333.34 246.66 332.68 247.32 332 248C329.375 247.625 329.375 247.625 327 247C326.957 245 326.959 243 327 241C328 240 328 240 330.5 239.875Z" fill="#38A1FF"/>
<path d="M295 105C297 107 297 107 298.25 109.625C299.116 110.801 299.116 110.801 300 112C303.951 112.588 306.609 112.087 310 110C308.125 113.875 308.125 113.875 307 115C305.039 115.203 305.039 115.203 302.625 115.25C301.834 115.276 301.042 115.302 300.227 115.328C298 115 298 115 296.223 113.715C294.264 110.968 294.816 108.259 295 105Z" fill="#1B1B1B"/>
<path d="M200 32C200.33 32.66 200.66 33.32 201 34C197.924 34.293 197.924 34.293 194.848 34.5859C194.238 34.7226 193.628 34.8592 193 35C191.856 37.2871 191.897 38.5927 191.938 41.125C191.958 42.4038 191.979 43.6825 192 45C191.01 44.67 190.02 44.34 189 44C188.919 42.5634 188.861 41.1256 188.812 39.6875C188.778 38.887 188.743 38.0865 188.707 37.2617C189 35 189 35 190.324 33.2695C193.677 30.7294 196.122 30.8774 200 32Z" fill="#1A1A1A"/>
<path d="M67 121C67.99 121.33 68.98 121.66 70 122C70 123.32 70 124.64 70 126C68.68 126 67.36 126 66 126C66.33 124.35 66.66 122.7 67 121Z" fill="#1A1A1A"/>
<path d="M74 120C74.99 120.33 75.98 120.66 77 121C77 121.66 77 122.32 77 123C75.68 122.67 74.36 122.34 73 122C73.33 121.34 73.66 120.68 74 120Z" fill="#1B1B1B"/>
</svg>
